<svg xmlns="http://www.w3.org/2000/svg" viewBox="0 0 1159.26 1099.59"><defs><style>.cls-1{fill:#ccae00;}.cls-2{fill:#7c6400;}.cls-3{fill:#ffef2e;}.cls-4{fill:#fff4c5;}.cls-5{fill:#fff;}.cls-11,.cls-12,.cls-19,.cls-21,.cls-23,.cls-24,.cls-25,.cls-26,.cls-27,.cls-31,.cls-32,.cls-34,.cls-36,.cls-37,.cls-39,.cls-6{fill:none;}.cls-11,.cls-12,.cls-19,.cls-21,.cls-23,.cls-24,.cls-25,.cls-26,.cls-27,.cls-31,.cls-32,.cls-33,.cls-34,.cls-35,.cls-36,.cls-37,.cls-39,.cls-6{stroke:#000;}.cls-11,.cls-19,.cls-21,.cls-23,.cls-24,.cls-25,.cls-26,.cls-27,.cls-31,.cls-32,.cls-33,.cls-34,.cls-35,.cls-36,.cls-37,.cls-39,.cls-6{stroke-miterlimit:10;}.cls-12,.cls-6{stroke-width:8.81px;}.cls-7{fill:#932424;}.cls-8{fill:#601414;}.cls-9{fill:#d31616;}.cls-10{fill:#ffb07b;}.cls-11{stroke-width:6.13px;}.cls-12{stroke-linejoin:round;}.cls-13{fill:#bcbcbc;}.cls-14{fill:#ddd;}.cls-15{fill:#777;}.cls-16{fill:#636262;}.cls-17{fill:#444343;}.cls-18{fill:#f9f9f9;}.cls-19{stroke-width:7.13px;}.cls-20{fill:#443700;}.cls-21{stroke-width:8.3px;}.cls-22{fill:#d8d6d6;}.cls-23{stroke-width:8.35px;}.cls-24{stroke-width:5.88px;}.cls-25{stroke-width:5.96px;}.cls-26{stroke-width:8.62px;}.cls-27{stroke-width:8.73px;}.cls-28{fill:#7c7455;}.cls-29{fill:#3d3722;}.cls-30{fill:#111010;}.cls-31{stroke-width:6.61px;}.cls-32{stroke-width:10.31px;}.cls-33,.cls-35{fill:#1c1a1a;}.cls-33,.cls-34{stroke-width:11.44px;}.cls-35{stroke-width:11.56px;}.cls-36{stroke-width:12.79px;}.cls-37{stroke-width:11.41px;}.cls-38{fill:#2b2a2a;}.cls-39{stroke-width:8.62px;}</style></defs><title>Asset 117</title><g id="Layer_2" data-name="Layer 2"><g id="Layer_13_copy_2" data-name="Layer 13 copy 2"><g id="Layer_7_copy_2" data-name="Layer 7 copy 2"><path class="cls-1" d="M650,626.8c-1-4.84-1.41-9.63-3-14.77-5.12-16.93-15.77-33.86-26.17-48-22.79-30.9-69.72-43.37-102.48-13.63-19.61,17.79-26.78,44.59-25,70.31a120.88,120.88,0,0,0,8.25,36.4c6.21,15.6,15.71,29.17,19.37,45.85.84,3.78,1.52,7.77,3.85,10.86s7,4.88,10.21,2.7A76.35,76.35,0,0,0,548.17,757a9,9,0,0,0,3.41,3.39c2.4,1.11,5.21.1,7.86.07,8.2-.09,13.15,8.68,16.93,15.93A145.82,145.82,0,0,0,586,792.31c2,3,4.36,6,7.67,7.38,2.88,1.23,6.14,1.11,9.27,1l10.2-.47a4.7,4.7,0,0,1,5.13,2.1l10.62,13.44c3.48,4.41,7.15,9,12.21,11.43s12,2.17,15.49-2.2c-.51.63,8.9,13.08,10.2,14.22,3.21,2.82,7.64,4.7,11.18,7.14,7.2,4.93,18.91,13.95,28.38,11.28,14.13-4,21.36-12.15,21.36-12.15A29.37,29.37,0,0,0,759,838.74c10.24-10,12.69-16.62,12.69-16.62s12-10.86,19.62-24c8.08-13.86-6.21-33-15.6-42.68a134.16,134.16,0,0,0-27.66-21.76c-4.42-2.61-9.3-3.69-13.6-5.85-4.82-2.43-8.82-7.4-12.68-11.11a641.61,641.61,0,0,1-50.92-55c-6.52-7.94-12.92-16.15-17.61-25.33A37.3,37.3,0,0,1,650,626.8Z"/><path class="cls-2" d="M758.91,765.29a9.55,9.55,0,0,0,0-1.07c-.18-2.51-1.66-4.72-2.9-6.91a41.2,41.2,0,0,1-5.15-16.95c-.2-2.48-.19-5.09-1.37-7.29-2.87-5.3-11.17-4.87-16-6.87-7.23-3-13.42-4.66-21.41-3.08a49.93,49.93,0,0,0-12,4.16,83.83,83.83,0,0,0-8.9,5.05c-15.82,10.18-29.49,24.39-36.45,41.82a62.67,62.67,0,0,0,2,51.6,23.53,23.53,0,0,0,5.32,8.86l.06.08c2.93,4.11,6.94,8,11.94,9.4l.42.1c1.2.68,2.38,1.38,3.47,2.13,10,6.86,17.17,12.25,29.43,9.66a77.65,77.65,0,0,0,36.94-19.19c11.94-11.11,20.47-25.58,25.62-41,1.37-4.09,2.51-8.55,1.23-12.68a23,23,0,0,0-4-6.82Z"/><path class="cls-1" d="M718.41,749.71a131.05,131.05,0,0,0-12.21,9.18c-9.27,7.43-18.5,15-26.79,23.51-6.24,6.4-16.3,13.27-13.62,23.39,1.38,5.18,5,9.43,8.64,13.37a237,237,0,0,0,18.29,17.71c3.33,2.88,6.89,5.76,11.17,6.85,4.62,1.18,9.53.12,14-1.53,21.32-7.85,35.74-28.16,43.78-49.34a22.42,22.42,0,0,0,1.92-8.63c-.13-3.8-2-7.29-3.87-10.61-3.61-6.51-7.27-13.08-12.33-18.54-4.53-4.88-11.9-10.92-19-9.66A29.21,29.21,0,0,0,718.41,749.71Z"/><path class="cls-1" d="M699.87,726.92c-3.08,1.8-6.06,3.72-8.69,5.41-15.82,10.18-29.49,24.39-36.45,41.82-1.81,4.54-6.57,14.83-4.73,19.35a101.09,101.09,0,0,0,21.4,32.55,28.12,28.12,0,0,0,6.81,5.45c7.57,4,16.83,1.42,24.66-2a54.91,54.91,0,0,0,14-8.18c4.78-4.07,8.37-9.33,11.89-14.53L745,782.89c4-5.91,8.2-12.54,7.27-19.61-.52-4-2.67-7.64-3.71-11.56s-1-7.94-2.47-11.61c-2.46-6-8.47-9.56-14.09-12.75-6.19-3.5-13.91-8.33-21.17-5.79A66,66,0,0,0,699.87,726.92Z"/><path class="cls-3" d="M730.87,741.13c-7.21,4.58-11.41,22.21-14.08,27.59a258.81,258.81,0,0,1-23.16,37.93,6.43,6.43,0,0,0-1.68,3.82c.17,3.94,5.77,6,8.21,8.41,3.17,3.16,5.64,7.12,9.71,9.28,4.93,2.63,11.18,1.82,16.07-.88s8.66-7,11.94-11.56a104,104,0,0,0,10.06-17.09c3-6.43,5.37-13.71,3.43-20.53-2-7.22-5.06-13.69-6.63-21.12-1.2-5.63-2-15.16-8.93-16.78A6.25,6.25,0,0,0,730.87,741.13Z"/><path class="cls-4" d="M733.2,749.2c-1.4.32-2.72,1.84-3.4,3.27-3.28,6.83-2.92,14.62-5.77,21.45a126.85,126.85,0,0,1-12.27,22.88c-1.61,2.35-3.39,5.16-2.43,7.84a8.55,8.55,0,0,0,2,2.82c5.91,6.25,11.68,12.43,19.56,4.3,3.88-4,6.28-9.16,8.52-14.26,2.41-5.48,4.76-11.38,3.77-17.28-.78-4.73-3.63-8.86-5-13.45-1.54-5,.11-10.47-1.85-15.32a3.81,3.81,0,0,0-1.51-2A2.22,2.22,0,0,0,733.2,749.2Z"/><path class="cls-2" d="M724.69,741.74a223.43,223.43,0,0,1-28.35,57.78c-12.94,18.89-42.6,43.43-64.17,20.69-13.79-14.55-22.38-31.63-30.67-49.85a19,19,0,0,1-2.16-7.32c-.07-3.11,1.31-6.06,2.79-8.8,6.58-12.2,15.6-22.9,24.82-33.26q23-25.85,48.12-49.68c16.18,15.42,38.56,31.45,50.13,50.72C729.71,729.54,727,734.47,724.69,741.74Z"/><path class="cls-1" d="M715.83,740.17a99.81,99.81,0,0,1-4.62,16.61c-7,19.26-18.61,37.3-35.25,49.32-7.51,5.43-17.05,9.68-25.9,6.92-6.66-2.08-11.53-7.69-15.72-13.26a199.51,199.51,0,0,1-25.87-46c-1-2.42-1.9-5.08-1.17-7.59,2.5-8.65,13.87-18.67,19.65-25.16q12.34-13.87,25.31-27.18c5.23-5.37,13.57-19.66,22.12-16.32,2.94,1.15,5.32,3.34,7.63,5.48l17.61,16.35c3.87,3.6,7.78,7.23,10.82,11.55C716.87,720,717.74,729.5,715.83,740.17Z"/><path class="cls-3" d="M709.09,738.66a106.94,106.94,0,0,1-13.77,37c-5.22,8.45-16.67,24.6-28.39,21.34-.06-2.75,1.53-5.23,3.07-7.51,8.65-12.81,17.57-24.8,24-38.92a175.9,175.9,0,0,0,8.13-22.31c1.19-4,8.69-19.56,8.63-6.12A95.73,95.73,0,0,1,709.09,738.66Z"/><path class="cls-5" d="M708.29,738.46c-1.12,6.21-6.42,14.8-9,15.93-.91.39-2.15.49-2.74-.31a2.75,2.75,0,0,1-.25-2.06c.74-5.17,2.71-9.73,4.93-14.48.89-1.89,1.93-3.87,3.79-4.84a2,2,0,0,1,1.93-.12C708.49,733.6,708.77,735.81,708.29,738.46Z"/><path class="cls-2" d="M649,639.39c-3.68-.4-7.86,1.24-12.83,6.08-20,19.42-41.55,37.24-60.84,57.36-7.45,7.76-14.83,16.41-16.84,27-4.18,21.88,15.87,45.7,27.57,62.52,12.74,18.34,40.55,9,58.42,3.84,6.81-1.95,13.79-4,19.45-8.22s9.37-10,12.87-15.92a253.13,253.13,0,0,0,20.51-43.72c2.89-8.1,5.4-16.71,4-25.19-2.86-17.68-19.77-28.46-30.39-41.37C663.77,653.06,657.8,640.34,649,639.39Z"/><path class="cls-1" d="M649,639.39c-3.68-.4-7.86,1.24-12.83,6.08-13.1,12.73-26.87,24.74-40.22,37.2-11.28,10.52-22.71,18.17-22,35.33.43,9.82,4.35,19.15,8.8,27.92a219.07,219.07,0,0,0,19.49,31.51c2.36,3.18,5,6.42,8.64,7.92,2.95,1.21,6.27,1.14,9.45.9a101.26,101.26,0,0,0,24.9-5.06c5.17-1.75,10.35-4,14.15-7.93,3.19-3.29,5.2-7.51,7.16-11.65q7.58-16.1,15.17-32.18c4.35-9.22,8.76-18.65,9.93-28.77,2.23-19.34-10-25.82-20.73-38.93C663.77,653.06,657.8,640.34,649,639.39Z"/><path class="cls-3" d="M653.73,767.44c1-1,1.93-1.93,2.83-2.94,6.24-7,10.59-15.53,14.86-23.91l10.2-20c3.51-6.89,7.09-14,7.63-21.72,1.27-18.42-12.19-5.56-16.47,1.94a141.47,141.47,0,0,1-54,53.25c-18.42,10.19-1.86,25.23,13.69,23.87C640.5,777.23,647.86,773.05,653.73,767.44Z"/><path class="cls-5" d="M664.05,730.8a7.23,7.23,0,0,0,1.5-.07,10.7,10.7,0,0,0,4.86-2.51A36.64,36.64,0,0,0,682,711.74c2.75-8-.82-14.61-7.84-7-5.26,5.71-10.07,12.27-12.35,19.77C660.94,727.44,660.94,730.55,664.05,730.8Z"/><path class="cls-2" d="M650,626.8c-1-4.84-1.41-9.63-3-14.77-5.12-16.93-15.77-33.86-26.17-48-22.79-30.9-69.72-43.37-102.48-13.63-19.61,17.79-26.78,44.59-25,70.31a120.88,120.88,0,0,0,8.25,36.4c6.21,15.6,15.71,29.17,19.37,45.85.84,3.78,1.52,7.77,3.85,10.86s7,4.88,10.21,2.7c-1.69,1.15,1.79,14.3,2.28,16.23a76.71,76.71,0,0,0,6,16.11c1.86,3.63,4.12,9.23,7.66,11.37,4.19,2.53,11.29,1.36,15.86.92l24.77-2.38c6.72-.65,13.54-1.32,19.82-3.82,7.53-3,13.79-8.42,19.84-13.8,18-16.06,36-33.32,45.6-55.43,1.44-3.31,2.7-6.85,2.37-10.45-.71-7.78-7.36-12.19-11.82-17.79a127.38,127.38,0,0,1-14.19-21.11A37.3,37.3,0,0,1,650,626.8Z"/><path class="cls-1" d="M650,626.8c-1-4.84-1.41-9.63-3-14.77-5.12-16.93-15.77-33.86-26.17-48-22.79-30.9-69.72-43.37-102.48-13.63-19.61,17.79-26.78,44.59-25,70.31a120.88,120.88,0,0,0,8.25,36.4c4.36,10.94,10.54,21.05,14.93,32,4.07,10.13,10,16.51,20.87,20,8.14,2.63,16.8,3,25.34,3.41-3.57,1.05-4.2,5.82-3.68,9.49,1,6.83,3.5,13.32,6,19.75,1.34,3.44,2.86,7.11,6,9.13,3.71,2.42,8.54,1.79,12.91,1.07,11.34-1.87,23.13-4,32.39-10.74a73.6,73.6,0,0,0,9.91-9.35C639.44,717.82,652.62,703.76,665,689a45.28,45.28,0,0,0,6.84-10c1.67-3.68,2.36-8,1-11.78a24.39,24.39,0,0,0-2.75-5.13c-5.55-8.61-12.12-16.53-16.8-25.68A37.3,37.3,0,0,1,650,626.8Z"/><path class="cls-3" d="M656.06,644.13c-3,.92-5.29,3.67-7.23,6.27-9.13,12.22-17.76,24.85-27.83,36.32a126.72,126.72,0,0,1-21.07,19.61c-7.35,5.23-16,8.79-23.14,14.34a7,7,0,0,0-2.92,3.87,7.4,7.4,0,0,0,.58,3.83c1.7,4.93,3.91,9.91,7.89,13.29,6.74,5.73,12.92,2.47,19.62-.84,5.53-2.73,9.94-7.23,14.24-11.64,16.51-16.95,33.08-34,47.07-53,3-4.12,6.06-8.77,5.73-13.86-.4-6.27-8.41-13.31-12.1-18.33A8.45,8.45,0,0,0,656.06,644.13Z"/><path class="cls-5" d="M650.46,659.17a5.46,5.46,0,0,0-2.32.74,13.3,13.3,0,0,0-3.57,3.6c-1.5,2-3,3.94-4.44,5.92a49.35,49.35,0,0,0-6,9.65,18,18,0,0,0-1.33,11.1,3.61,3.61,0,0,0,1.89,2.74,3.66,3.66,0,0,0,2.86-.46c8.13-4.16,17.07-19.11,17.24-28.12,0-1.7-.43-3.59-1.84-4.56A3.78,3.78,0,0,0,650.46,659.17Z"/><path class="cls-2" d="M650.73,626.7c-.64-4.94-2.23-9.83-3.69-14.67-5.12-16.93-15.77-33.86-26.17-48-22.79-30.9-69.72-43.37-102.48-13.63-19.61,17.79-26.78,44.59-25,70.31a120.88,120.88,0,0,0,8.25,36.4c5.65,14.2,14.27,27.15,18.4,42,1.21,4.34,1.25,12,4.26,15.55,3.62,4.32,11.74,3.52,16.8,3.55,11.81.06,24.12,0,34.68-5.24,5.77-2.88,10.69-7.16,15.54-11.4,15.84-13.84,31.72-27.73,45.76-43.37,5-5.6,9.91-11.57,12.48-18.64A26.87,26.87,0,0,0,650.73,626.7Z"/><path class="cls-1" d="M642.06,624.33A9.7,9.7,0,0,0,635,620c-3.48-.54-7,.08-10.49.51a101.93,101.93,0,0,1-30.3-.79c-10.73-1.9-21.18-5.53-32-6.31s-22.81,1.88-29.71,10.29c-4.55,5.56-6.34,13-6.34,20.13s1.64,14.24,3.27,21.22c4.2,18,7,48.67,34.09,41.27C584,700.68,601.13,687,616,672.36c6.87-6.76,12.84-14.63,19.88-21.19C641.64,645.84,646.68,631.66,642.06,624.33Z"/><path class="cls-3" d="M630.84,630.33l-.11-.05c-3.78-1.63-8.11-.5-12.11.45-19.49,4.67-39.39,8.43-58.78,13.91-4.12,1.17-8.32,2.44-11.73,5-15,11.35-1.32,47.56,19.26,42.54,21.09-5.15,37.58-21,53-36.3C624.61,651.68,642,635.31,630.84,630.33Z"/><path class="cls-5" d="M621.6,635.37a11.68,11.68,0,0,0-2,.15,104.31,104.31,0,0,0-21.51,5.55c-2.68,1-5.49,2.26-7,4.71-3.55,6,3.73,8.73,8.64,8.58,7.43-.24,14.85-5.16,20.69-9.39a11.68,11.68,0,0,0,4-4c.83-1.71.58-4.1-1-5.09A3.92,3.92,0,0,0,621.6,635.37Z"/><path class="cls-6" d="M650,626.8c-1-4.84-1.41-9.63-3-14.77-5.12-16.93-15.77-33.86-26.17-48-22.79-30.9-69.72-43.37-102.48-13.63-19.61,17.79-26.78,44.59-25,70.31a120.88,120.88,0,0,0,8.25,36.4c6.21,15.6,15.71,29.17,19.37,45.85.84,3.78,1.52,7.77,3.85,10.86s7,4.88,10.21,2.7A76.35,76.35,0,0,0,548.17,757a9,9,0,0,0,3.41,3.39c2.4,1.11,5.21.1,7.86.07,8.2-.09,13.15,8.68,16.93,15.93A145.82,145.82,0,0,0,586,792.31c2,3,4.36,6,7.67,7.38,2.88,1.23,6.14,1.11,9.27,1l10.2-.47a4.7,4.7,0,0,1,5.13,2.1l10.62,13.44c3.48,4.41,7.15,9,12.21,11.43s13.5,1.48,16.2.1c1.75,3.16,8.19,10.78,9.49,11.92,3.21,2.82,7.64,4.7,11.18,7.14,7.2,4.93,18.91,13.95,28.38,11.28,14.13-4,21.36-12.15,21.36-12.15A29.37,29.37,0,0,0,759,838.74c10.24-10,12.69-16.62,12.69-16.62s12-10.86,19.62-24c6.66-11.43-3-22.65-8.88-32.28a101.27,101.27,0,0,0-28.29-30,20.8,20.8,0,0,0-4.89-2.73c-5.87-2-13.34-3.13-18.06-7.5a641.49,641.49,0,0,1-60.34-63.9c-6.52-7.94-12.92-16.15-17.61-25.33A37.3,37.3,0,0,1,650,626.8Z"/><path class="cls-7" d="M473.61,620.25c-10.21-7.35-7.49-23.88-7.18-37.29.44-18.76,2.71-39,12.29-55.57,20.22-34.93,72-56.4,119.81-40a93.47,93.47,0,0,1,17.09,7.88c19.5,11.47,34.61,29.45,44.91,49.37,10.48,20.3,20.38,50.07-2.2,66.5-9.08,6.61-20.68,8.49-31.81,10-47.7,6.5-96.3,9.86-143.87,2.53A20.54,20.54,0,0,1,473.61,620.25Z"/><path class="cls-8" d="M497.6,625.73c-2.64-.21-5.29-.43-7.93-.66-5-.43-10.05-.92-14.6-3-6.91-3.11-8.79-7.78-9-14.69-.38-10.32-.76-20.65-.35-31,.76-18.88,4.64-38.66,17.06-53-1.1,11-.1,22.24,4.07,32.42,7.87,19.22,25.51,33,44.5,40.41,15.18,5.89,31.56,8.13,47.84,8.62,15.18.45,30.63-.65,44.93-5.74,22-7.84,43.74-27.26,40.31-52.31.66,4.78,3.8,11.89,5.66,16.43,4,9.84,9.5,20.89,2.62,30.54-5.72,8-16,15-25.11,18.4-9.84,3.63-20.36,4.89-30.62,7-11,2.27-21.76,5.55-32.84,7.35-14.91,2.43-30.12,2.15-45.22,1.55Q518.23,627.36,497.6,625.73Z"/><path class="cls-9" d="M515.82,573.89c-11.08-5.69-19.73-15.33-21.51-28.43-3.78-27.78,32.14-49.13,54.1-57.34,13.06-4.88,25.28-8,39.14-5.6s31,8.05,40.31,19.2c9.11,10.9,19.83,19.14,23.12,33.87,8.4,37.55-35.4,53.62-65.25,53.89C562.9,589.69,536.19,584.33,515.82,573.89Z"/><path class="cls-10" d="M551.91,520.93c-1.46-6.27-.68-13,2.91-18.34,4.47-6.6,12.29-9.95,19.68-13,25.82-10.54,78.17,15.14,57.67,47-6.76,10.5-20.95,13.13-33.47,13-17-.11-36-6.33-44.42-22.34A26.56,26.56,0,0,1,551.91,520.93Z"/><path class="cls-6" d="M471.72,622.88c-1.67-1.18-2.36-3.29-2.86-5.28-6.86-26.83-4.17-66,9.86-90.21,20.22-34.93,72-56.4,119.81-40,1.84.63,3.65,1.31,5.44,2.06,21.82,9.06,39.3,26.29,51.5,46.21,9.51,15.53,19.72,37.93,14.71,56.53-6.71,24.93-43.54,28.31-64.72,31.15a512.71,512.71,0,0,1-129.4.83A9.28,9.28,0,0,1,471.72,622.88Z"/><path class="cls-7" d="M722.65,691a9.62,9.62,0,0,0,0-2.21c-1-9.6-3.79-19.23-9.63-26.94a71.49,71.49,0,0,0-9.63-9.9c-4.4-3.93-9.05-7.85-14.68-9.64-15.73-5-16,7.77-17.91,19.06-1.45,8.89-4.42,21.31-.75,30,3,7.07,17.73,6,23.66,6S719.12,699,722.34,692A3.85,3.85,0,0,0,722.65,691Z"/><path class="cls-8" d="M703.2,693.09c0-.39,0-.78-.05-1.17-.49-7.42-2.2-15.58-8.22-20-3.57-2.62-8.11-3.45-12.48-4.22-2.64-.47-5.37-.93-8-.33-8.35,1.91-7,17.86-4.44,24,2.64,6.26,29.07,9.68,32.36,5A5.45,5.45,0,0,0,703.2,693.09Z"/><path class="cls-9" d="M725,691.44a12.22,12.22,0,0,0-.3-2.61c-1.41-7.29-2.83-14.64-5.6-21.53s-7-13.39-13.08-17.69a37.22,37.22,0,0,0-10.07-4.87c-4.82-1.57-18.66-5.59-22.67-.49-1.8,2.29-.64,12.53,1.79,14s5.47,1.3,8.3,1.12c7-.44,14.83-.32,19.79,4.59,4.59,4.55,5.09,11.63,6.26,18,.71,3.83,1.81,8.45,5.08,11,2.24,1.72,8.64,3.83,10.18.12A4.51,4.51,0,0,0,725,691.44Z"/><path class="cls-11" d="M722.91,688.89a19.74,19.74,0,0,0-.11-4.73c-1.42-12.09-6.43-24.06-15.43-32.3a38,38,0,0,0-20.17-9.61c-3-.43-9-1.24-11.71.41-3.43,2.05-2.37,3.65-2.8,7.37-1.44,12.36-7.81,29.12-2.67,41.32,4.39,10.41,48.83,8.81,52.34-.2A9.33,9.33,0,0,0,722.91,688.89Z"/><path class="cls-3" d="M723,710c3.23-2.54-1.42-7.6-4.85-12.88-10.55,1.15-20.25-.34-29.6.16A61.87,61.87,0,0,1,699,713C710.06,712.86,713.81,711.27,723,710Z"/><path class="cls-1" d="M655,704.38c5.18,6.83,24.23,9,44,8.65a61.87,61.87,0,0,0-10.43-15.78,85.76,85.76,0,0,1-10.18.13c-9-.67-10.2-7.48-9.69-16.9-4.78-3.18-9.77-6.1-14.8-8.81.89.48-2,15.25-2,17.27C651.67,693.91,651.88,700.25,655,704.38Z"/><path class="cls-3" d="M668.69,680.48c.2-3.73.67-7.86,1-12.18a177.22,177.22,0,0,1,3.44-20.62A114,114,0,0,0,660,641.29c-2.21,9.13-4.58,20.08-6.14,30.38C658.92,674.38,663.91,677.3,668.69,680.48Z"/><path class="cls-5" d="M672.31,654.12c2.22-10.23.92-9.87.92-9.87-1.73-6.82-8.5-8-8.5-8-2,0-4.76,6-5.58,11.49A111.69,111.69,0,0,1,672.31,654.12Z"/><path class="cls-5" d="M723,710c1.7-16.6-9.2-13-6.29-13.54,0,0-2.61-.95-13.52.24a170.33,170.33,0,0,1,9.33,16.3C719.3,712,719.44,711.16,723,710Z"/><path class="cls-11" d="M723.36,701.77a8.2,8.2,0,0,1,1.3,5.25c-1.17,9.66-32.61,6.18-39.78,5.77-8.67-.48-24-.62-29.87-8.41-6.11-8.07-2.43-24-1.07-33,1.06-7.07,2.61-39,14.62-33.25,9.8,4.68,1.87,22.24,1.18,30.18-1.34,15.25-3.86,28.15,8.64,29.08,12.89,1,34.2-7.64,43.64,2.62A11.59,11.59,0,0,1,723.36,701.77Z"/><path class="cls-5" d="M625.34,472.32c32.6-7.47,40.33,5,16.7,37.78,0,0-9.15,10-35,23.38C612.75,515.64,611.54,483.75,625.34,472.32Z"/><path class="cls-3" d="M573.9,506.09c12.29-6.54,16.71-19.15,33.14-22.88,7.42-2.62,12.44-9.55,18.3-10.89-13.8,11.43-12.59,43.32-18.3,61.16-13,7.95-22.26,14.92-39.08,25.37C569.77,542.43,565.3,520.14,573.9,506.09Z"/><path class="cls-1" d="M573.79,512.21c-8.61,14-3.61,34.61-5.42,51-10.12,6.29-23.75,14.81-33,24-.07-12.59,1-25.14,4.39-37.09C550.32,537.74,557,521.16,573.79,512.21Z"/><path class="cls-2" d="M487,615.59c15.07-22.82,30.43-40.41,54.86-69.16-3.37,11.94-4.46,24.5-4.39,37.09C523.17,597.75,502.1,599.62,487,615.59Z"/><path class="cls-12" d="M610.64,481.68c-17.86,4.25-99.88,97.2-128.54,136.88C573.9,563.5,642,510.1,642,510.1,671.5,477.49,643.87,467.22,610.64,481.68Z"/></g><path class="cls-13" d="M915.12,673.72c-10-26.27,13.24-51.68,57.94-93.74s67.88-21.37,67.88-21.37l47.34-71.25v-70.9l63-73.17L1007.22,377s-3.57,5.34-39.27,46.25-72.58,78.23-72.58,78.23,25.82-7.13,31.53,5.93c10.12,23.12-54,60.17-63.81,64.47C846.71,579.07,847,558.37,847,558.37L779.09,675.75l-33.36-37L708.11,673l52.79,49.16L656.44,836.46l9,44,30.37,3L810.87,768.07l53.56,49,35.69-37.12-42-38.21L839,722.86S853.87,714.42,915.12,673.72Z"/><path class="cls-14" d="M1143.2,494.38c-18.46-2.69-37.26-2.8-55.9-5.53l-46.36,69.76a6.9,6.9,0,0,0-.6-.46c-3.68,15.49-8.25,30.86-12.7,46.29-.63,9.46-5,19.73-5,19.73Z"/><path class="cls-14" d="M915.12,673.72C853.87,714.42,839,722.86,839,722.86l19.13,18.85,118.78-73.94s-8,1.65-23.56.27c-12.93,1.36-25.92,3.05-38.93,3.54C914.61,672.29,914.85,673,915.12,673.72Z"/><path class="cls-15" d="M959.82,485.8s24.83,29.63-38.08,74.68-64.56,59.64-76.15,43.27l-51,94.17-15.54-22.17h0l-33.36-37L708.11,673l52.79,49.16L656.44,836.46l9,44,422.85-464-65.59,7.41Z"/><path class="cls-16" d="M849,568a25,25,0,0,1-2-9.59L779.09,675.75l15.54,22.17,51-94.17.29.4A167.52,167.52,0,0,1,847.79,578C848.32,574.61,848.7,571.28,849,568Z"/><path class="cls-17" d="M959.82,485.8l.69-.68a277.08,277.08,0,0,0-62.57,13.75c-1.66,1.71-2.57,2.63-2.57,2.63s25.82-7.13,31.53,5.93c10.12,23.12-54,60.17-63.81,64.47C855,575.45,851,572.17,849,568c-.28,3.32-.66,6.65-1.19,10a167.52,167.52,0,0,0-1.91,26.18c11.33,15.72,13.48,1,75.86-43.67C984.65,515.43,959.82,485.8,959.82,485.8Z"/><path class="cls-16" d="M1010.61,376.23l-3.39.79s-3.57,5.34-39.27,46.25c-30.1,34.49-61,66.43-70,75.6a277.08,277.08,0,0,1,62.57-13.75l61.83-60.91C1019,408,1015.13,392,1010.61,376.23Z"/><path class="cls-17" d="M1010.61,376.23c4.52,15.79,8.38,31.79,11.73,48l.35-.34,65.59-7.41h0l63.16-73.2Z"/><path class="cls-18" d="M1040.34,558.15c-3.88-2.83-26.72-16.34-67.28,21.83-43.48,40.91-66.64,66.07-58.67,91.6,13-.49,26-2.18,38.93-3.54l-2.77-.27c-17.4-1.86,42.69-78.08,65-78.86,10.4-.37,12.65,7.27,12.09,15.53C1032.09,589,1036.66,573.64,1040.34,558.15Z"/><path class="cls-18" d="M1144.63,492.84l10.73-150.5-4,1-63,73.17v70.9l-1,1.49c18.64,2.73,37.44,2.84,55.9,5.53Z"/><path class="cls-19" d="M745.73,638.74l33.36,37L847,558.37s-.31,20.7,16.07,13.53c9.82-4.3,73.93-41.35,63.81-64.47-5.71-13.06-31.53-5.93-31.53-5.93s36.88-37.32,72.58-78.23S1007.22,377,1007.22,377l148.14-34.68-10.73,150.5L1022.69,624.17s15.17-36-7.14-35.26-82.4,77-65,78.86,26.33,0,26.33,0L858.1,741.71l42,38.21L864.43,817l-53.56-49L695.8,883.5l-30.37-3-9-44L760.9,722.14,708.11,673Z"/><path class="cls-20" d="M780.56,679.2c2.75-2.39,6.94-3.17,10.71-3.68l59.63-8.13c1.39-.19,3.08-.26,3.9.88a3.89,3.89,0,0,1,.51,2.18l2.36,68.2c.06,1.89.1,3.92-.92,5.53a9.62,9.62,0,0,1-3.63,2.94c-20.53,11.64-41.94,20.85-58.65,37.4-13.32,13.2-26.47,26.56-39.71,39.84l-59,59.14-30.37-3-9-44,53.38-58.41c18.24-20,68.44-58.48,67.8-85.92-.09-3.68-.68-7.64,1.18-10.82A8.42,8.42,0,0,1,780.56,679.2Z"/><path class="cls-1" d="M831.69,694.94c3.76-12.84,16.69-31.17,23.83-19.85,4,6.29.88,26.78,1.14,34.47.34,9.69.55,19.4,1,29.09.06,1.89.1,3.92-.92,5.53a9.62,9.62,0,0,1-3.63,2.94c-20.53,11.64-41.94,20.85-58.65,37.4-13.32,13.2-26.47,26.56-39.71,39.84l-59,59.14c-2.6-.3-28-4.42-28.89-2.2,3.13-7.54,6.34-15.22,11.66-21.42s13.21-10.78,21.36-10.1c4,.33,7.91,1.9,11.91,1.53,5.37-.51,9.74-4.36,13.7-8l66.55-61.67c12-11.1,24.3-22.66,30.84-37.61a51,51,0,0,1,3.94-8.23c1.2-1.77,2.71-3.33,3.81-5.16,5.14-8.47.31-19.2,0-29.09A21.54,21.54,0,0,1,831.69,694.94Z"/><path class="cls-19" d="M780.56,679.2c2.75-2.39,6.94-3.17,10.71-3.68l59.63-8.13c1.39-.19,3.08-.26,3.9.88a3.89,3.89,0,0,1,.51,2.18l2.36,68.2c.06,1.89.1,3.92-.92,5.53a9.62,9.62,0,0,1-3.63,2.94c-20.53,11.64-41.94,20.85-58.65,37.4-13.32,13.2-26.47,26.56-39.71,39.84l-59,59.14-30.37-3-9-44,53.38-58.41c18.24-20,68.44-58.48,67.8-85.92-.09-3.68-.68-7.64,1.18-10.82A8.42,8.42,0,0,1,780.56,679.2Z"/><path class="cls-15" d="M745.73,638.74A1027,1027,0,0,0,820.63,714c5.79,5.23,79.23,66.18,79.49,65.9L864.43,817Q786,745.33,708.11,673Z"/><path class="cls-14" d="M772.13,676.81c19.54,2.05,34.2,24.32,48.5,37.21,25.16,22.7,51.94,46.28,79.55,65.81-3.64,4.1-10.41,13.17-16.91,11.42S877,780.77,873,776.6c-3.19-3.33-8.37-3.58-12.6-5.44-5.18-2.29-8.83-7-12.25-11.46l-31.12-40.89c-2-2.67-4.31-5.5-7.56-6.38-4.37-1.17-9,1.62-13.45.75-3.74-.74-6.45-3.86-8.87-6.79C780,697.68,772.47,688.08,772.13,676.81Z"/><path class="cls-17" d="M745.73,638.74c5.51,5.49,26.94,22.3,20,31-2.64,3.31-6.86,5.22-9.05,8.84-3.91,6.49.41,14.69,4.88,20.82a278.68,278.68,0,0,0,34.34,38.87c-3.32-3.67,1.65-9.88,6.59-9.48s8.66,4.49,11.83,8.29l32.25,38.61c1.7,2,3.48,4.14,5.9,5.25,2.07.95,4.41,1.09,6.64,1.6,20.11,4.62,15.55,23.87,5.34,34.49Q786,745.33,708.11,673Z"/><path class="cls-19" d="M745.73,638.74A1027,1027,0,0,0,820.63,714c5.79,5.23,79.23,66.18,79.49,65.9L864.43,817Q786,745.33,708.11,673Z"/><ellipse class="cls-17" cx="855.84" cy="669.62" rx="26.17" ry="27.6"/><ellipse class="cls-1" cx="852.44" cy="670.43" rx="19.73" ry="20.8"/><path class="cls-18" d="M866,662.88c1.86,4.43.72,9-2.55,10.29s-7.43-1.31-9.29-5.73-.72-9,2.55-10.29S864.14,658.46,866,662.88Z"/><path class="cls-1" d="M693.78,746.26c1.48-1.66,29.66-28.17,39.76-27.14s13.23-.77,21.75,8.49,15.76,19.18,4.4,29.52-31.14,29.7-44.16,24.6S683.73,757.63,693.78,746.26Z"/><path class="cls-3" d="M734.25,765.6c-7.65,2.11-16.68.94-22.11-4.81a11.38,11.38,0,0,1-2.58-4.06c-1.92-5.74,2.59-11.52,7.06-15.62a125.25,125.25,0,0,1,19.11-14.41c5.85-3.59,11.39-6.34,18.12-2.68a20.44,20.44,0,0,1,9,11,15.45,15.45,0,0,1,.93,3.7,14.52,14.52,0,0,1-2.92,9.64C755.45,756,743.17,763.13,734.25,765.6Z"/><path class="cls-5" d="M737.7,752a14.66,14.66,0,0,1-5.82.82,6.43,6.43,0,0,1-4.9-2.89,6.51,6.51,0,0,1,0-5.82,16.91,16.91,0,0,1,3.63-4.8c4.82-4.88,13.86-13.89,20.45-6.59a9,9,0,0,1,2,8.23C751.27,747.38,743.44,750.18,737.7,752Z"/><path class="cls-6" d="M693.78,746.26c1.48-1.66,29.66-28.17,39.76-27.14s13.23-.77,21.75,8.49,15.76,19.18,4.4,29.52-31.14,29.7-44.16,24.6S683.73,757.63,693.78,746.26Z"/><path class="cls-1" d="M686.65,828.35a29.45,29.45,0,0,1,2.81-7.16A108.13,108.13,0,0,1,764.7,767c11-1.94,22.56-2.5,30,6.43,5.16,6.19,15.34,17.24,11,26.17-6.1,12.63-56.58,63.51-75.17,69.2-12.06,3.69-26.26-7.65-34.27-15.25S684.39,837.84,686.65,828.35Z"/><path class="cls-3" d="M694.36,831.78c3.23-7.23,7.78-14.53,10.21-18.84,3.16-5.63,6.88-11.3,12.54-14.44a3.61,3.61,0,0,1,1.55-.55c1.71-.08,2.76,2.09,2.34,3.75s-1.7,2.94-2.72,4.31c-3.53,4.74-4,11-4.6,16.87a172.89,172.89,0,0,1-5.61,29c-3.59,12.66-14.41,5.64-17-3.83C689.87,843.83,691.65,837.83,694.36,831.78Z"/><path class="cls-2" d="M716.48,833.2q1.74-9.93,4.08-19.73c1.37-5.74,3-11.61,6.7-16.29,5.12-6.42,13.56-9.74,21.85-12.09a156,156,0,0,1,25.13-4.93c10.44-1.18,41-1.36,32,16.61-7.75,15.37-25.13,28.65-38.05,40a299.87,299.87,0,0,1-27,21.55c-6.1,4.24-19.86,16.83-26,6.74-2.28-3.74-2-8.25-1.47-12.44Q714.79,842.9,716.48,833.2Z"/><path class="cls-1" d="M725.36,837q2-9.09,4.47-18c1.45-5.25,3.11-10.62,6.47-14.88,4.63-5.86,11.85-8.84,18.89-11a123.7,123.7,0,0,1,21.23-4.38c8.78-1,34.27-1,25.74,15.39-7.29,14-22.51,26.1-33.91,36.46a278.09,278.09,0,0,1-23.67,19.58c-5.32,3.85-17.48,15.3-22.09,6-1.71-3.43-1.18-7.56-.55-11.39Q723.41,845.88,725.36,837Z"/><path class="cls-3" d="M741,843.12c0-.2,0-.4,0-.59a71.76,71.76,0,0,1,8.93-30.08c8.41-15,25.79-16.42,41.76-17,2.56-.08,5.6.16,7,2.33a6.3,6.3,0,0,1,.53,4.37c-.81,5-3.7,9.41-6.8,13.42-10.52,13.58-25.59,27.09-42,32.64-2.91,1-6.71,1.54-8.51-.93A6.54,6.54,0,0,1,741,843.12Z"/><path class="cls-5" d="M763.29,826.15c0-.1,0-.2,0-.31A37.35,37.35,0,0,1,768,810.16c4.38-7.84,13.45-8.56,21.77-8.84,1.34,0,2.92.09,3.63,1.22a3.3,3.3,0,0,1,.28,2.28,16,16,0,0,1-3.55,7c-5.48,7.09-13.34,14.13-21.91,17-1.51.51-3.5.8-4.43-.49A3.45,3.45,0,0,1,763.29,826.15Z"/><path class="cls-6" d="M686.8,828.31a44.53,44.53,0,0,1,1.37-4.84,68,68,0,0,1,15.6-25.57A97.18,97.18,0,0,1,719,785.46c11-7.48,23.09-13.71,36.09-16.74,10.33-2.41,29.37-4.75,38.33,2.62,6.1,5,16.24,20,12.25,28.28-6.1,12.63-56.58,63.51-75.17,69.2-15.46,4.73-41.47-15.77-44.15-30.87A24.68,24.68,0,0,1,686.8,828.31Z"/><g id="Layer_8_copy_3" data-name="Layer 8 copy 3"><path class="cls-1" d="M411.11,1041.92s-1.73-33,19.58-38.49c11.39-95.7,15.67-176.77,43.66-185.16,53.77-16.13,53.68,31.17,58.23,57.57s6.09,85.74,6.09,85.74,23.3,13.25,25.51,49.55c37.42,13.19,49.75,55,53.85,77-72.39,13.2-131-3.3-140.23-6.6l-3.31,7.7-88.33-5.5Z"/><path class="cls-3" d="M447.79,1036a16.67,16.67,0,0,1,1.18-9.27c2-4.54,5.43-8,8.86-11.23a390.61,390.61,0,0,1,69-52.23L524,954.86a58,58,0,0,1-29,17.25c-3.38.8-7.32,1.1-9.85-1.55-2.13-2.23-2.52-5.82-2.77-9.08-.8-10.42-1-22.57,6.07-29.36,3.48-3.33,8.08-4.64,12.41-6.3a76.18,76.18,0,0,0,27.31-18.18,67.34,67.34,0,0,1-33.54,11.17c-4.87.25-10.4-.39-13.48-4.64-2.17-3-2.59-7.11-2.92-11-.72-8.43-1.22-17.77,3.36-24.49,9.58-14,32.12-5.15,43.22-17.69a52.4,52.4,0,0,1-44.08-1.92c-2.76-1.43-5.54-3.24-7.1-6.18-1.43-2.71-1.62-6-1.35-9.17,2.1-24.44,28.39-36.2,44.3-19.94,12.55,12.84,13,34.62,16,52,4.55,26.4,6.08,85.74,6.08,85.74s23.3,13.25,25.51,49.55c37.42,13.19,49.75,55,53.85,77,1.5,8.05-56.53-1.41-61-4.56-11.83-8.24-15.23-24.06-11.47-38.38,3.54-13.49,19.46-21.72,30.8-25.16l-11.11-10.86a4.74,4.74,0,0,0-2.31-1.51,4.49,4.49,0,0,0-2.9.93c-18.88,11.53-37.68,19.26-57.83,27.56-14,5.77-28.7,11.63-43.42,9.13-3.24-.55-6.61-1.63-8.81-4.35A10.74,10.74,0,0,1,447.79,1036Z"/><path class="cls-2" d="M573.18,1013.45l4.58,2.74a2.44,2.44,0,0,1,1.25,1.26c-1.1-3.52-33,5.22-54.17,36.79-2.36,3.53-11.19,20.58-10.19,24.85s34.07,9.33,38.44,9.45c11.56.3,21.47-1.13,33.2,2.58-28.18,3.53-51.18,3.84-74.88-1.87-19.24-4.64-22-6.73-33.89-10.75l-1.23,9.44a45.06,45.06,0,0,1-27.69-1.74,346.52,346.52,0,0,1,86.28-63.09c10.65-5.46,23.28-13,23.83-26.1.3-7.31-3.47-14-7.09-20-3.85-6.47-8.72-13.61-15.64-13.93-4.48-.21-8.58,2.61-12.37,5.33l-79.05,56.78c-8.81,6.33-17.7,12.72-25.2,20.93-11.11,12.13-19,28-31.6,38.11a312.47,312.47,0,0,0,20.61-50.26c1.76-5.6,3.1-11.45,5.05-17,3.29-9.28,9.54-11.24,13.53-18.81a15.76,15.76,0,0,0,1.3-6.1,829.85,829.85,0,0,1,27.44-157.51q2.07,14,4.13,28c.3,2,.63,4.07,1.81,5.58,1.66,2.11,4.43,2.44,6.93,2.63C489.1,872.27,512,873,527.5,857.66a14.48,14.48,0,0,0,1.29,8.9,145.16,145.16,0,0,1-69.55,11.13l-1.05,25.52c-.08,2-.11,4.22,1,5.82a7.29,7.29,0,0,0,3.45,2.37A76.63,76.63,0,0,0,532,905.66c0,2.78,0,5.55,0,8.33-21.3,15.49-49,19.37-73,10.22,2.15,13.54-6,28.61,0,40.57,3.58,7.1,11.33,10.46,18.58,10.34,21-.36,52-19.06,58.53-42.89-4,14.75,8.49,25,15.18,34.79a81.21,81.21,0,0,1,13.87,45C569.35,1012.28,569.52,1011.27,573.18,1013.45Z"/><path class="cls-21" d="M411.11,1041.92s-1.73-33,19.58-38.49c11.39-95.7,15.67-176.77,43.66-185.16,53.77-16.13,53.68,31.17,58.23,57.57s6.09,85.74,6.09,85.74,23.3,13.25,25.51,49.55c37.42,13.19,49.75,55,53.85,77-72.39,13.2-131-3.3-140.23-6.6l-3.31,7.7-88.33-5.5Z"/><path class="cls-5" d="M479.92,1012.85c-1.87,2.35-3.73,5.81-2.11,8.38a5.61,5.61,0,0,0,2.95,2.07c10.25,3.78,21.13-1.68,31.42-5.35,6.43-2.29,13.1-3.93,19.16-7.27s11.6-8.78,13.54-16.06c6.24-23.47-15.65-18.31-26.53-13A113.6,113.6,0,0,0,479.92,1012.85Z"/><path class="cls-5" d="M515.21,855.16c11.68-12.75-13.52-39.47-25.18-26.68-5.15,5.66-5.32,15.73-1,22.25a18.82,18.82,0,0,0,19.25,8A12.55,12.55,0,0,0,515.21,855.16Z"/><path class="cls-22" d="M524.21,874.44l-1.82,1.6a42,42,0,0,0-21.33,2.43,6.91,6.91,0,0,0-2.6,1.52c-1.22,1.24-1.61,3.18-1.95,5-.81,4.35-1.62,8.81-1,13.2s2.82,8.8,6.49,10.42c5.73,2.52,11.73-2.34,17.74-3.8,2.31-.56,5-.78,6.45-2.87a9.06,9.06,0,0,0,1.23-4.47A53.61,53.61,0,0,0,524.21,874.44Z"/><path class="cls-5" d="M523.28,870.28l-1.82,1.61a42,42,0,0,0-21.33,2.43,7,7,0,0,0-2.6,1.51c-1.22,1.25-1.62,3.19-1.95,5-.81,4.36-1.62,8.81-1,13.21s2.81,8.79,6.49,10.41c5.73,2.52,11.73-2.33,17.74-3.79,2.31-.56,5-.78,6.45-2.87a9,9,0,0,0,1.22-4.47A53.5,53.5,0,0,0,523.28,870.28Z"/><path class="cls-5" d="M506.11,931.32a20.6,20.6,0,0,0-6.05,3c-6.07,4.89-6.07,14.85-5.46,23.21a6.46,6.46,0,0,0,.74,3.11c1.49,2.34,4.75,1.21,7-.23a96.36,96.36,0,0,0,11.46-8.8c3.8-3.39,15.64-15.67,12.17-22.48S511.08,929.49,506.11,931.32Z"/><path class="cls-5" d="M554.67,1047.39a14,14,0,0,0-2.71,5.32c-.93,4.36,1.58,8.71,4.45,11.83a33.82,33.82,0,0,0,25.48,11.19c3.72-.08,7.56-.87,10.57-3.34,6.13-5,6.75-15.55,3.44-23.23C585.76,1025.68,567.9,1029.48,554.67,1047.39Z"/></g><g id="Layer_8_copy_3-2" data-name="Layer 8 copy 3"><path class="cls-1" d="M265.79,1044.17s-1.75-33,19.84-38.49c11.54-95.7,15.88-176.77,44.25-185.16,54.5-16.13,54.41,31.17,59,57.57s6.17,85.74,6.17,85.74,23.61,13.25,25.86,49.55c37.91,13.19,50.41,55,54.57,77-73.37,13.2-132.82-3.3-142.12-6.6l-3.36,7.7L240.5,1086Z"/><path class="cls-3" d="M303,1038.22a16.49,16.49,0,0,1,1.19-9.27c2-4.54,5.5-8,9-11.23A395.23,395.23,0,0,1,383,965.49l-2.8-8.38a58.94,58.94,0,0,1-29.38,17.25c-3.42.8-7.42,1.1-10-1.55-2.16-2.23-2.55-5.82-2.8-9.08-.81-10.42-1-22.57,6.14-29.36,3.53-3.33,8.19-4.64,12.58-6.3a77.38,77.38,0,0,0,27.68-18.18,68.87,68.87,0,0,1-34,11.17c-4.94.25-10.54-.39-13.66-4.64-2.21-3-2.63-7.11-3-11-.73-8.43-1.24-17.77,3.4-24.49,9.71-14,32.55-5.15,43.8-17.69a53.74,53.74,0,0,1-44.67-1.92c-2.8-1.43-5.62-3.24-7.19-6.18-1.46-2.71-1.65-6-1.38-9.17,2.13-24.44,28.78-36.2,44.9-19.94,12.72,12.84,13.13,34.62,16.17,52,4.61,26.4,6.17,85.74,6.17,85.74s23.61,13.25,25.86,49.55c37.91,13.19,50.41,55,54.57,77,1.52,8.05-57.29-1.41-61.87-4.56-12-8.24-15.43-24.06-11.62-38.38,3.58-13.49,19.72-21.72,31.22-25.16L422,1011.41a4.85,4.85,0,0,0-2.35-1.51,4.57,4.57,0,0,0-2.93.93c-19.14,11.53-38.19,19.26-58.61,27.56-14.17,5.77-29.09,11.63-44,9.13-3.28-.55-6.7-1.63-8.93-4.35A10.67,10.67,0,0,1,303,1038.22Z"/><path class="cls-2" d="M430,1015.7l4.65,2.74a2.5,2.5,0,0,1,1.26,1.26c-1.12-3.52-33.48,5.22-54.9,36.79-2.39,3.53-11.34,20.58-10.33,24.85s34.54,9.33,39,9.45c11.71.3,21.76-1.13,33.64,2.58-28.55,3.53-51.86,3.84-75.87-1.87-19.51-4.64-22.29-6.73-34.36-10.75-.41,3.15-.83,6.29-1.25,9.44a46.2,46.2,0,0,1-28-1.74,350.85,350.85,0,0,1,87.43-63.09c10.8-5.46,23.6-12.95,24.16-26.1.3-7.31-3.52-14-7.18-20-3.91-6.47-8.85-13.61-15.85-13.93-4.55-.21-8.71,2.61-12.54,5.33l-80.12,56.78c-8.93,6.33-17.94,12.72-25.54,20.93-11.25,12.13-19.24,28-32,38.11A309.91,309.91,0,0,0,263,1036.19c1.79-5.6,3.15-11.45,5.13-17,3.33-9.28,9.66-11.24,13.71-18.81a15.58,15.58,0,0,0,1.31-6.1A820.28,820.28,0,0,1,311,836.8q2.1,14,4.19,28c.3,2,.64,4.07,1.83,5.58,1.68,2.11,4.49,2.44,7,2.63,20.82,1.54,44.07,2.22,59.74-13.07a14.21,14.21,0,0,0,1.31,8.9,148.93,148.93,0,0,1-70.5,11.13l-1.05,25.52c-.08,2-.12,4.22,1,5.82a7.39,7.39,0,0,0,3.5,2.37,78.57,78.57,0,0,0,70.35-5.74c0,2.78,0,5.55,0,8.33-21.59,15.49-49.63,19.37-74,10.22,2.17,13.53-6.08,28.61,0,40.57,3.63,7.1,11.48,10.46,18.83,10.34,21.28-.36,52.73-19.06,59.32-42.89-4.08,14.75,8.6,25,15.38,34.79a80.35,80.35,0,0,1,14.05,45C426.16,1014.53,426.33,1013.52,430,1015.7Z"/><path class="cls-23" d="M265.79,1044.17s-1.75-33,19.84-38.49c11.54-95.7,15.88-176.77,44.25-185.16,54.5-16.13,54.41,31.17,59,57.57s6.17,85.74,6.17,85.74,23.61,13.25,25.86,49.55c37.91,13.19,50.41,55,54.57,77-73.37,13.2-132.82-3.3-142.12-6.6l-3.36,7.7L240.5,1086Z"/><path class="cls-5" d="M335.53,1015.1c-1.9,2.35-3.78,5.81-2.14,8.38a5.67,5.67,0,0,0,3,2.07c10.39,3.78,21.42-1.68,31.84-5.35,6.52-2.29,13.28-3.93,19.42-7.27s11.76-8.78,13.72-16.06c6.32-23.47-15.86-18.31-26.88-13A114.79,114.79,0,0,0,335.53,1015.1Z"/><path class="cls-5" d="M371.29,857.41c11.84-12.75-13.7-39.47-25.51-26.68-5.23,5.66-5.4,15.73-1.07,22.25a19.2,19.2,0,0,0,19.51,8A12.77,12.77,0,0,0,371.29,857.41Z"/><path class="cls-5" d="M380.41,876.69l-1.84,1.6A43.06,43.06,0,0,0,357,880.72a7.15,7.15,0,0,0-2.64,1.52c-1.23,1.24-1.63,3.18-2,5-.82,4.35-1.64,8.81-1.06,13.2s2.86,8.8,6.59,10.42c5.8,2.52,11.88-2.34,18-3.8,2.34-.56,5.05-.78,6.54-2.87a9,9,0,0,0,1.24-4.47A52.88,52.88,0,0,0,380.41,876.69Z"/><path class="cls-5" d="M362.07,933.57a21.09,21.09,0,0,0-6.14,3c-6.14,4.89-6.14,14.85-5.53,23.21a6.59,6.59,0,0,0,.75,3.11c1.51,2.34,4.82,1.21,7.06-.23a97.09,97.09,0,0,0,11.61-8.8c3.85-3.39,15.85-15.67,12.34-22.48S367.11,931.74,362.07,933.57Z"/><path class="cls-5" d="M411.28,1049.64a14.08,14.08,0,0,0-2.75,5.32c-.94,4.36,1.61,8.71,4.51,11.83A34.5,34.5,0,0,0,438.87,1078c3.77-.08,7.66-.87,10.71-3.34,6.21-5,6.84-15.55,3.48-23.23C442.79,1027.93,424.69,1031.73,411.28,1049.64Z"/></g><g id="Layer_3_copy_2" data-name="Layer 3 copy 2"><path class="cls-8" d="M552.15,867.85l21.64,49.61s-34.92,11.28-55.78,2.9-30.08-53.8-30.08-53.8S524.39,873.25,552.15,867.85Z"/><path class="cls-7" d="M540.94,875a19.2,19.2,0,0,1,1.82,4c4.38,13.13,9.19,27.37,10.54,41.13-12.42,1.6-22.38,5.45-35.29.27-20.84-8.38-30.07-53.74-30.08-53.8.36,1.77,22,2.71,23.82,2.83C523.44,870.21,535.08,865.34,540.94,875Z"/><path class="cls-9" d="M524.72,883.26c5.67,10.9,13.17,27.71,9.09,35.71-6.47,12.7-21.14-.67-27.12-7.65-10.22-11.93-15.67-29.58-18.76-44.76.95,4.16,28.31,1.24,33,9.66C521.91,878,523.25,880.43,524.72,883.26Z"/><path class="cls-24" d="M552.15,867.85l21.64,49.61s-34.71,7.26-55.57-1.12-30.29-49.78-30.29-49.78S524.39,873.25,552.15,867.85Z"/><path class="cls-2" d="M543.16,823.33,573.9,890s-39.79,9.2-61.06,4.68-32.93-49-32.93-49S515.76,834.18,543.16,823.33Z"/><path class="cls-1" d="M532.6,835.58a23.62,23.62,0,0,1,3.89,4c3.18,4.08,5.19,8.93,7.15,13.71l8.91,21.65c5.21,12.65,5.38,17.62-8,20a87.05,87.05,0,0,1-31.74-.22c-21.26-4.52-32.93-49-32.93-49,0,.18,39.29-14.5,43.69-14.06A17.19,17.19,0,0,1,532.6,835.58Z"/><path class="cls-3" d="M521.79,842.24c.24.32.49.67.74,1a122.69,122.69,0,0,1,16.42,33c1.17,3.67,2.15,7.66.75,11.3-3.28,8.54-20.46,4.27-27.32,3-21.19-4-32.51-45.28-32.53-45.33s20.27-7,21.67-7.41C511.2,834.75,514.93,832.91,521.79,842.24Z"/><path class="cls-25" d="M543.16,823.33,573.9,890s-37.58,10.77-62.49-2.31c-19.23-10.1-31.5-42-31.5-42S515.76,834.18,543.16,823.33Z"/><path class="cls-2" d="M435.12,843.86s-20.85,48.64-11.53,60.94,45.1,26.78,45.1,26.78,37.39-16.64,42.72-43.86c-3.77-16.81-13.41-48-13.41-48Z"/><path class="cls-1" d="M451.22,851.65a232.94,232.94,0,0,0-2,36.38,14.26,14.26,0,0,0,1,5.7,14.57,14.57,0,0,0,3.95,4.52c4.91,4.27,15,15.32,22.55,14.89,1.85-.1,3.43-1.3,4.86-2.47A190.56,190.56,0,0,0,504.05,889c1.72-1.94,3.48-4.12,3.64-6.71.33-5.42-3.78-29.51-7.67-34.28-4.24-5.2-47.7-4-48.34.39C451.52,849.48,451.36,850.57,451.22,851.65Z"/><path class="cls-3" d="M459.54,852.27c-.12,1.21-.15,2.43-.17,3.63q-.14,6.29-.25,12.57c-.08,4.08-.14,8.23,1.08,12.12,2.63,8.37,10.62,13.82,18.49,17.74,1.88.94,3.92,1.85,6,1.55s3.68-1.66,5.22-3C496.76,891,504,884.54,506,875.76c1.82-8-.62-21.17-6-27.75-4.21-5.16-35.24-6.8-38.67-1.58A12.67,12.67,0,0,0,459.54,852.27Z"/><path class="cls-5" d="M470.75,855a17.26,17.26,0,0,0-.12,7.13c1.49,8.39,8.83,15.63,17.36,16.26s17.17-6.06,18-14.54C508.22,840.14,475,837.89,470.75,855Z"/><path class="cls-6" d="M435.12,843.86s-20.85,48.64-11.53,60.94,45.1,26.78,45.1,26.78,37.39-16.64,42.72-43.86c-1.41-12.51-13.41-48-13.41-48Z"/><path class="cls-8" d="M275.73,877.74l-19.19,58.8S355.89,935,397,923.17s34.71-48.73,34.71-48.73S336.47,878.39,275.73,877.74Z"/><path class="cls-7" d="M317.37,914.65c-3.85,4.53-5.47,10.85-2.24,15.65,5.92,8.79,28.62,1.5,37.28.54,14.93-1.67,30.1-3.52,44.58-7.67,20.06-5.75,32.09-22.27,33.83-43.07-4-.7-7.7,1.8-11,4a136.73,136.73,0,0,1-73,22.84c-8.13.15-16.67-.34-23.94,3.29A17.33,17.33,0,0,0,317.37,914.65Z"/><path class="cls-9" d="M350.58,918.38a17,17,0,0,0,.12,3.91c.42,2.83,1.81,5.82,4.48,6.87a10.88,10.88,0,0,0,4.86.33A191.43,191.43,0,0,0,397,923.17c20.06-5.75,32.09-22.27,33.83-43.07-4-.7-7.7,1.8-11,4a136.07,136.07,0,0,1-32.1,15.73c-9.61,3.23-23.27,0-31,6.56A17.83,17.83,0,0,0,350.58,918.38Z"/><path class="cls-10" d="M388.39,916.67a3.48,3.48,0,0,0,1.21,2.82,5.57,5.57,0,0,0,3.27,1c10.22.7,17.94-2.61,25-9.91,1.86-2,17.81-29.82,12.61-30.25-17-1.42-33.1,18.59-40.46,31.34A10.63,10.63,0,0,0,388.39,916.67Z"/><path class="cls-26" d="M275.73,877.74l-19.19,58.8S355,931.13,397,923.17c33.08-6.26,34.71-48.73,34.71-48.73S336.47,878.39,275.73,877.74Z"/><path class="cls-2" d="M280.06,841l-26.54,56.75s101.67,7.29,145-.75,42.49-53.94,42.49-53.94S342,847.09,280.06,841Z"/><path class="cls-1" d="M337.23,869.44A153.13,153.13,0,0,0,330,886.72c-8.34,22.52,58,12.27,68.6,10.3,43.34-8,42.49-53.86,42.49-53.94,0,.23-33.85.93-35.78,1-20.06.36-45.56-3-60.26,13.72A57.51,57.51,0,0,0,337.23,869.44Z"/><path class="cls-3" d="M363.51,877.49a45.77,45.77,0,0,0-1.71,10.13c-.14,2.57,0,5.3,1.34,7.48,5.32,8.48,27.55,3.38,35.43,1.92,43.34-8,42.49-53.86,42.49-53.94-.61,1.87-23.73.43-26.27.45-13.3.1-24.89,1.43-35.68,10.18A47.75,47.75,0,0,0,363.51,877.49Z"/><path class="cls-5" d="M397.17,884.83q-.75,3.52-1.21,7.09c28.18,3.3,45.57-22.36,45.1-48.84,0,2.26-14.75.14-16,.36-7.27,1.28-10.82,3.52-15.24,10.44A93.72,93.72,0,0,0,397.17,884.83Z"/><path class="cls-27" d="M280.06,841l-26.54,56.75s102.54,3,146.13-4.3c37-6.24,41.41-50.39,41.41-50.39S342,847.09,280.06,841Z"/><path class="cls-28" d="M151,568.5s30.71-79.43,76.2-109.74,166.85-59.24,256.25-35.65,132.4,164.37,136.83,190.77-13.4,37.4-13.4,37.4c-.7,2.15-23.29,96.44-39.18,112.1-18,17.75-16.93,18.79-16.93,18.79l-5.51,34.09c-6,8.28-8.53,13.63-17.29,18.64-14.86,8.5-34.59,9.89-50.34,10.94-14.75,1-34.24.29-49,.95-40.45,1.8-78.64-.57-119-3.63-15.43-1.17-36.49-3.43-47.53-15-5.79-6.06-10-26.85-15.56-30.23-.18-.11-62.48-37.85-88.11-97.16C133.73,643.64,153,585.82,151,568.5Z"/><path class="cls-29" d="M241.36,778.87s10.14,43.74,23,51A110.48,110.48,0,0,0,287.26,840s75.59,14.43,145.08,9.3,89.38-5.7,101.15-19.35l11.77-13.65,6.84-58Z"/><path class="cls-1" d="M313.28,770.61c-2.79.83-5.52,1.71-8.14,2.64,3.28,17.43,10.31,31.51,18.93,46.78a57,57,0,0,0,6.52,9.89c5.06,5.77,12.31,9.3,19.79,11.1s15.25,2,22.94,1.93c19.72-.09,39.09.84,59-.64,69.5-5.13,89.38-5.7,101.15-19.35l11.77-13.64,6.84-58.06c-70,4.66-140,9.83-210.1,14A132.78,132.78,0,0,0,313.28,770.61Z"/><path class="cls-3" d="M384.89,809.56l-2,.75a6.75,6.75,0,0,0-3.47,2.26c-1.4,2.16,0,5,1.41,7.11,9.07,13.26,19.07,15.87,35,15.78,14.28-.08,28.32.7,42.76-.53,50.34-4.29,64.73-4.77,73.26-16.18a54.77,54.77,0,0,0,6.7-10.78c1.52-3.44,1-10.53,2.53-13l-3.85,6.26a22.27,22.27,0,0,0-11.16-9.74l-1.59,22a24.48,24.48,0,0,1-14.7-8.67,73.2,73.2,0,0,0-12.27,16.95q-4.66-7.27-9.34-14.55a3.51,3.51,0,0,0-1.93-1.77,3.57,3.57,0,0,0-2.59.88l-20.34,13.85q2.76-11.55,5.51-23.1a215.93,215.93,0,0,1-37.43,24.65,107.19,107.19,0,0,1,12-27.58,326.16,326.16,0,0,1-43.06,25.28,64.88,64.88,0,0,1,8.82-16.26A137.28,137.28,0,0,0,384.89,809.56Z"/><path class="cls-5" d="M504,834.9c1.91-.8,5.81.05,8.06-.44,3.05-.67,5.55-2.13,8.36-3.37,5.08-2.25,9.33-4.27,13.08-8.62l11.77-13.65c1.2,0,6-52.52,6.89-58.05-5.12.89-9.79-2.85-15.42-1.62a3.75,3.75,0,0,0-2.17,1.08,4.1,4.1,0,0,0-.64,2.49q-.75,19-2.92,37.84c-.92,8-2.08,16.17-5.46,23.51A41.9,41.9,0,0,1,504,834.9Z"/><path class="cls-2" d="M585,717.31c-3.25,13.11-4.15,26.69-12.31,37.84-5.86,8-12.54,22.25-23.93,22.91-2,.11-7-2.59-8-2.28-5.31,1.62-3.18,13.07-3.28,19.28q-5.55-5.91-11.34-11.57c-1-1-2.41-2-3.67-1.41s-1.3,2.41-1.11,3.82L523.92,806c-4.07,1-4.58-6.09-7.91-8.65s-8,.33-10.27,3.69-4,7.59-7.73,9.25l-5.78-10.14c-.73-1.27-1.59-2.65-3-3.07-1.68-.49-3.38.59-4.79,1.63q-8,5.91-15.39,12.58c3.05-9.12,6.14-18.59,5.09-28.15l-35.19,31q4.94-14.35,9.88-28.7l-40.38,28.37,6.48-15.56c-10.79,2.88-21.77,5.78-32.95,5.49-8.63-.22-17.34-2.58-24.37-7.7-3.79-2.75-8.8-9.07-13.34-3.25-4.69,6,4.53,19.7,7.45,25,7,12.59,19.08,16.29,27.08,27.29-21.34,4.3-45.53.81-67-1.85C297.2,841.41,282.1,839,269.7,831c-11.12-7.17-18.77-18-25.44-29.2-7.34-12.28-15.14-19-26.79-27.71-8.63-6.45-16.76-10.05-23.51-18.81-11.9-15.46-23.94-31.2-31.92-49.11-4.2-9.43-8.48-19.25-10.13-29.4-1.42-8.78-4.52-17.39-6.6-26.11a74.71,74.71,0,0,1-1.87-11.06c-.55-6.58.5-13.17,1-19.75,1.06-12.88.17-25.91,1.92-38.72,4.26-31.14,24.42-64.1,46.37-86.26,21.62-21.83,40-43.36,69.6-55.17,26-10.38,54.34-13.84,82.36-14.83a500.13,500.13,0,0,1,141.5,15.25c22.76,5.82,45.93,13.72,62.94,29.88,13.05,12.39,21.51,28.72,29.25,44.94q17.1,35.8,31.13,72.95c4.59,12.15,9,24.85,8,37.79-1.21,15.07-13.31,31.82-18,46.6S588.69,702.28,585,717.31Z"/><path class="cls-20" d="M244.26,801.8c-7.34-12.28-15.14-19-26.79-27.71-8.63-6.45-16.76-10.05-23.51-18.81-11.9-15.46-23.94-31.2-31.92-49.11-4.2-9.43-8.48-19.25-10.13-29.4-1.42-8.78-4.52-17.39-6.6-26.11a74.71,74.71,0,0,1-1.87-11.06c-.55-6.58.5-13.17,1-19.75,1.06-12.88.17-25.91,1.92-38.72,4.26-31.14,24.42-64.09,46.36-86.25,22.16-22.38,52-62.22,86.6-51.4-21.22-6.65-48.32,41-44.11,56.94,2.64,10,8.65,18.65,14,27.49A232.34,232.34,0,0,1,282.08,659c-.81,15.5-4.25,32.74-17.06,41.57,13.81,20.53,29.19,40,42.05,61.18,12.76,21,16.5,43.68,22.25,67.37,1,4,1.85,8.59-.48,12-3.06,4.48-9.65,4.31-15,3.45C280.78,839.26,261.58,830.78,244.26,801.8Z"/><path class="cls-1" d="M390.48,788.9C364,778,349.24,741.75,334.78,715.17c-2.83-5.2-5.64-10.56-10-14.55-3.64-3.32-8.18-5.51-12-8.67-14.26-11.91-17.52-39.59-15.87-57,1.78-18.81,7.63-38.28,19.19-53.38a9.69,9.69,0,0,1,4.15-3.61,10,10,0,0,1,4.5-.19c54.05,5.87,110.65,12.18,152.85,49a225.17,225.17,0,0,0-7.68,27.29c-.88,4.12-1.58,8.7.57,12.33,2.3,3.86,7.36,5.44,11.8,4.68s8.3-3.45,11.61-6.49c1.2-1.1,2.43-2.31,4-2.67,4.82-1.08,7.33,5.55,11.42,8.31,5.7,3.83,14-1.38,15.58-8s-1.4-13.5-4.76-19.48-7.26-12-7.72-18.84c12-9.9,32.15-10.78,47-12.36a228.85,228.85,0,0,0,42.95-8.81c2.67-.82,5.49-1.7,8.2-1,3.72.95,6.17,4.71,6.75,8.5,2.34,15.32-3.64,27.87-10.19,41.31-13,26.74-14,57.07-26.32,84.05-5.12,11.25-14.05,32.14-27.5,36.2-8,2.4-15.17-5.75-21.21-4.42-7.68,1.68-18.86,16.46-24.75,21.78-2.79,2.52-6.15,5.21-9.87,4.61-2.36-.39-4.28-2.06-6.06-3.66l-18.29-16.45a9.57,9.57,0,0,0-4-2.54c-1.89-.42-3.83.34-5.61,1.11-13.85,6-27.13,13.47-41.63,17.64C409.78,793.35,399.45,792.58,390.48,788.9Z"/><path class="cls-3" d="M437.53,759.6c-7.19,3.8-13.71,8.72-21.55,11.31-5.69,1.89-11.46,2-15.15-3.19-2.37-3.33-4.8-7.57-3-11.25,1-2,2.94-3.22,4.83-4.35,4-2.39,31.39-17.53,41-22.83l-45,15.52c-6.1,2.11-13.52,4-18.46-.14a19,19,0,0,1-3.72-4.89,12.6,12.6,0,0,1-2-4.59c-.46-3.23,1.67-6.39,4.44-8.13s27-12.71,32.57-15.23c7.16-3.27,14.5-6.1,21.7-9.3l0,0-57.18,12.35c-5.53,1.19-11.62,2.32-16.61-.34s-7.31-8-9.43-13.09c-1.43-3.41-2.82-7.48-.82-10.59,1.42-2.21,4.11-3.17,6.61-4a319.65,319.65,0,0,1,59.88-12.64l-74.43.33c-12.62,0-18.16-.12-22.87-10.28-2.34-5-4.11-17.13,2-20.31,4.1-2.12,48.62,1.62,66.06-.15L327,631.94c-15.24-3.05-3.4-24.05,5.57-27.88,9.64-4.11,103.56,10.66,107.67,18.79,1.71,3.37,1,7.4.14,11.09-2.64,12-5.45,24.34-4.06,36.59s7.84,24.69,19.1,29.8c-12.94-21-17.2-53.28-4.3-75.3,21.59,3.87,7.44,18.89,6.91,33.77-.54,15.58,8.85,21.86,21.91,26.94-4.38,13.2-5.08,22-7.9,32.78,8-13.28,19.39-28.38,26.43-42.19,11.68,22.24,14.9,31.34,22.18,47-.3-10-5.53-29.59-7.65-37.6,12.91-1,19.47-21,19.23-27.82-.36-9.9-4.15-19.22-7.82-28.27,3.5,1.75,8.18-5.53,10.6-3.79,5.07,3.63,9.94,20.58,10.37,26.57,1.09,15.36-3.59,33.31-14.49,45.78,22.44-12.47,22.44-43.09,17.26-62.88-3.36-12.83,15.39-9.75,25.28-11.76,7.21-1.46,26.41-6.74,37.71-6.72,22,0-10.76,31.88-24.58,32.14-11,.2-22.31-2.28-32.65,1.32l31,3.56c2.74.31,5.6.67,7.85,2.26,6.61,4.69,3.11,15-1,22a107.58,107.58,0,0,0-33.5-2.68,111.7,111.7,0,0,1,34.85,13.91,28.78,28.78,0,0,1-7.64,18.47,129.19,129.19,0,0,0-39.19-8.58c5.35,4.93,12.86,6.56,19.88,8.48s19.75,3.8,18.31,10.92c-1.25,6.13-4.87,9.34-5.91,17.42l-26.22-8.54c5.15,8.32,22.6,9.5,21.51,19.21-2,18.06-9.86,14.67-14.62,19.58-6.46-4.93-28.33-20.84-37.06-29.93-8.82,11-18,24.87-26.86,35.88-8.09-10.44-16.52-23.14-26-32.34A271.25,271.25,0,0,1,437.53,759.6Z"/><path class="cls-5" d="M545.35,773.67c12.2-18.31,22-42.14,28.55-63,3.41-10.81,6.47-21.72,9.8-32.56,2.27-7.39,3.38-17.94,7.68-24.26,2.82-4.14,6.74-7.41,9.89-11.3,5.87-7.24,8.94-16.45,9.84-25.71s-.23-18.61-2.05-27.74c3.94,1.89,6,6.26,7.25,10.43a62.87,62.87,0,0,1,.82,33.9c-1.14,4.45-2.84,8.9-6,12.24-2.24,2.37-5.16,4.11-7.07,6.76-3.29,4.56-2.53,10.62-3.77,15.72s-3.54,10.26-5,15.4c-2.83,10-5.12,20.23-8,30.27-5.68,20-15.73,42.79-31.68,56.95-2.9,2.57-5.09,1.91-8.37-.13C547.31,770.62,545.32,773.7,545.35,773.67Z"/><path class="cls-6" d="M151,568.5s30.71-79.43,76.2-109.74,166.85-59.24,256.25-35.65,132.4,164.37,136.83,190.77-13.4,37.4-13.4,37.4c-.7,2.15-23.29,96.44-39.18,112.1-18,17.75-16.93,18.79-16.93,18.79l-5.51,34.09c-6,8.28-8.53,13.63-17.29,18.64-14.86,8.5-34.59,9.89-50.34,10.94-14.75,1-34.24.29-49,.95-40.45,1.8-78.64-.57-119-3.63-15.43-1.17-36.49-3.43-47.53-15-5.79-6.06-10-26.85-15.56-30.23-.18-.11-62.48-37.85-88.11-97.16C133.73,643.64,153,585.82,151,568.5Z"/><path class="cls-30" d="M599.39,543.82c2.34,15.39-.38,30.45-16.11,38.45-10.93,5.56-23.6,6.14-35.72,8a157,157,0,0,0-28.34,7.2c-3.29,1.17-6.61,2.5-9.22,4.81s-4.15,5.15-5.77,8l-8.53,15.24c-.72,1.28-1.68,2.73-3.15,2.83a4.18,4.18,0,0,1-3.09-1.64c-12.72-13-12.9-30.32-31.74-36.85-22.48-7.79-45.51-12.75-68.72-17.83-28-6.15-56.42-13.37-80.8-28.5s-44.5-39.5-47.78-67.93c-1.11-9.63-.12-19.91,5.22-28,6-9,16.34-14,26.39-18.06,13.27-5.33,29.27-5.77,43.48-8.31a438.28,438.28,0,0,1,64.34-6.93c18-.52,37-1.66,54.93-.34,31,2.26,58.88,11.17,82.56,31.24,21.93,18.6,40.76,41.58,52.39,68C593.61,522.06,597.75,533,599.39,543.82Z"/></g><g id="Layer_6_copy_2" data-name="Layer 6 copy 2"><path class="cls-1" d="M248.83,666.67c1-4.84,2.64-9.37,3.31-14.69,2.23-17.55-.6-37.33-4.36-54.43-8.22-37.46-46-67.85-88.09-53.94-25.16,8.32-42.64,29.91-51.53,54.12a120.88,120.88,0,0,0-7.29,36.6c-.68,16.77,2.46,33-1,49.73-.78,3.8-1.78,7.72-.91,11.49s4.41,7.29,8.23,6.6a76.25,76.25,0,0,0-4.48,42.26,9,9,0,0,0,1.73,4.48c1.75,2,4.72,2.19,7.15,3.24,7.54,3.24,8.49,13.25,9,21.41A147,147,0,0,0,122.89,792c.67,3.52,1.56,7.2,4,9.84,2.12,2.3,5.15,3.51,8.07,4.64l9.52,3.71a6.23,6.23,0,0,1,3,1.91,6,6,0,0,1,.8,2.08l4.23,16.58c1.39,5.44,2.87,11.09,6.5,15.39s10,6.82,15.05,4.25c-.72.38,2.8,15.56,3.52,17.14,1.79,3.87,5.07,7.38,7.32,11,4.55,7.42,11.58,20.4,21.33,21.8,14.53,2.07,24.47-2.46,24.47-2.46a29.35,29.35,0,0,0,31.35,6.55c13.43-5,18.37-10.05,18.37-10.05s15.37-5.08,27.7-14,5.71-22.59,5.71-22.59,13.57-8.34,11.14-18S312.87,811,308.31,806.18c-8.2-8.63-20.6-4.84-25.54-16.31A637.32,637.32,0,0,1,253.69,707c-2.73-9.89-5.23-20-5.78-30.27A38,38,0,0,1,248.83,666.67Z"/><path class="cls-2" d="M301.88,826.74a31.26,31.26,0,0,0-4.43,1.87,12.9,12.9,0,0,0-4.48,3.45,13.58,13.58,0,0,0-2.23,6c-.59,3.45-.73,7.09.55,10.34a6.26,6.26,0,0,0,2.34,3.12,8.4,8.4,0,0,0,3.5.93,29,29,0,0,0,8.42.12,23.48,23.48,0,0,0,8-3.46c5.86-3.65,11-7.76,9.26-15.15-1.47-6.36-6.8-9.13-13.07-8.73A31.84,31.84,0,0,0,301.88,826.74Z"/><path class="cls-1" d="M304.52,825.22a22.6,22.6,0,0,0-3.56,1.47,9.73,9.73,0,0,0-3.57,2.81,11.28,11.28,0,0,0-1.66,5,17.23,17.23,0,0,0,.73,8.8,5.74,5.74,0,0,0,2,2.71,6.83,6.83,0,0,0,2.88.89,22.82,22.82,0,0,0,6.88.32,17.31,17.31,0,0,0,6.42-2.73c4.68-2.94,8.76-6.3,7.15-12.63-1.37-5.44-5.79-7.94-10.9-7.76A24,24,0,0,0,304.52,825.22Z"/><path class="cls-2" d="M301.91,813.5a25.27,25.27,0,0,0-10.4,7.19,8.82,8.82,0,0,0-2.25,3.89,24.65,24.65,0,0,0,0,4.21c-.06,1.83-.7,3.62-.62,5.45.15,3.84,3.5,7,7.21,8s7.68.42,11.43-.49c5.36-1.31,11.4-4.08,12.42-9.49,1.44-7.68-4.76-20.81-13.64-19.77A19.64,19.64,0,0,0,301.91,813.5Z"/><path class="cls-1" d="M301.94,813.36a24,24,0,0,0-9.81,7.28c-2.32,2.85-4.32,6.72-3.79,10.47a7.85,7.85,0,0,0,4.73,6.25,10.83,10.83,0,0,0,3.76.56A29.63,29.63,0,0,0,308,835.86c4.46-1.85,5.34-4.26,7.93-7.77a8.82,8.82,0,0,0,.19-9.94C313.11,813.73,306.85,811.51,301.94,813.36Z"/><path class="cls-2" d="M291.77,800.65c-3,1-5.16,3.52-5.89,7.75A41.57,41.57,0,0,0,287,826.82a7.38,7.38,0,0,0,2.24,4c1.93,1.45,4.66.91,6.94.13a49.47,49.47,0,0,0,16.35-9.41,5.81,5.81,0,0,0,2.22-3.15,6.16,6.16,0,0,0-1.16-3.9c-4-6.94-6.28-12-14.54-13.9A13.31,13.31,0,0,0,291.77,800.65Z"/><path class="cls-1" d="M293.34,799.76c-2.56.87-4.41,3-5,6.62a35.55,35.55,0,0,0,.92,15.72,6.24,6.24,0,0,0,1.92,3.39c1.64,1.24,4,.77,5.92.11a42.07,42.07,0,0,0,14-8.05,4.92,4.92,0,0,0,1.9-2.68,5.25,5.25,0,0,0-1-3.33c-3.38-5.92-5.36-10.22-12.41-11.85A11.36,11.36,0,0,0,293.34,799.76Z"/><path class="cls-2" d="M280.56,847.05a74,74,0,0,0-17.71,5.6,184.29,184.29,0,0,0-31.92,18.63c-4.53,3.21-9.38,7.28-9.64,12.8-.22,4.6,2.84,8.62,5.75,12.2,7.54,9.27,24.22,12.21,35,8.2,13.43-5,18.37-10.05,18.37-10.05s15.37-5.08,27.7-14c18.1-13-.43-32.21-16.55-33.84A42.07,42.07,0,0,0,280.56,847.05Z"/><path class="cls-1" d="M280.6,846c-7.39-.13-14.23,5.09-21,8-7.66,3.3-33.27,12-29.78,23.93,1,3.51,3.68,6.27,6.24,8.89,6.56,6.69,14.84,14,24,12.09,3.27-.66,6.18-2.44,9-4.2L301,875.06c3.31-2,7-4.7,7.21-8.59.12-2.26-1-4.4-2.34-6.27a34.15,34.15,0,0,0-24.27-14.12C281.24,846.06,280.92,846,280.6,846Z"/><path class="cls-2" d="M291.9,837.3a6.54,6.54,0,0,0,.44-1c.85-2.37.4-5,.17-7.49a41,41,0,0,1,2.2-17.57c.83-2.35,1.9-4.73,1.71-7.21-.46-6-8.22-9-11.79-12.75-5.38-5.68-10.37-9.69-18.32-11.48a49.85,49.85,0,0,0-12.67-1.07,83.1,83.1,0,0,0-10.2,1c-18.6,2.89-36.88,10.34-50.35,23.46a62.73,62.73,0,0,0-19.16,48,23.42,23.42,0,0,0,1.26,10.24s0,.07,0,.1c1,4.94,3.06,10.16,7.09,13.43l.34.25c.82,1.11,1.61,2.23,2.3,3.35,6.33,10.32,10.7,18.16,22.95,20.75a77.71,77.71,0,0,0,41.58-2.59c15.44-5.31,29.13-15.08,40.14-27.11,2.92-3.19,5.77-6.81,6.29-11.1a23.06,23.06,0,0,0-.88-7.85Q293.45,844,291.9,837.3Z"/><path class="cls-1" d="M261.24,806.67a135.45,135.45,0,0,0-14.9,3.46c-11.49,3-23,6.2-34.06,10.63-8.31,3.33-20.3,5.53-22,15.86-.86,5.29.71,10.64,2.44,15.71a232.36,232.36,0,0,0,9.5,23.59c1.86,4,3.94,8.06,7.4,10.78,3.75,2.95,8.67,4,13.44,4.28,22.67,1.46,44.13-11.26,60.11-27.37a22.71,22.71,0,0,0,5.28-7.1c1.42-3.53,1.11-7.48.78-11.27-.65-7.4-1.32-14.89-3.71-21.93-2.15-6.29-6.42-14.8-13.4-16.5A29.24,29.24,0,0,0,261.24,806.67Z"/><path class="cls-1" d="M253.59,778.35c-3.55.4-7.05.95-10.15,1.43-18.6,2.89-36.88,10.34-50.35,23.46-3.51,3.41-12,10.89-12.2,15.76a100.63,100.63,0,0,0,6.28,38.41,28.16,28.16,0,0,0,4,7.74c5.31,6.66,14.8,8.1,23.34,8.18a55.22,55.22,0,0,0,16.16-1.8c6-1.78,11.46-5.14,16.79-8.46l24.59-15.3c6.08-3.77,12.6-8.13,14.64-15,1.16-3.88.67-8.06,1.32-12.06s2.36-7.65,2.47-11.62c.19-6.44-3.83-12.16-7.68-17.35-4.22-5.7-9.3-13.24-17-13.86A65.71,65.71,0,0,0,253.59,778.35Z"/><path class="cls-3" d="M276.13,803.88c-8.46,1.26-19.48,15.68-24.12,19.51a259.37,259.37,0,0,1-36.62,25.28c-1.23.71-2.56,1.5-3.09,2.82-1.46,3.67,2.83,7.81,4.07,11,1.62,4.17,2.26,8.78,5.09,12.4,3.44,4.4,9.47,6.2,15,5.71s10.78-2.94,15.62-5.74a103.88,103.88,0,0,0,16.16-11.54c5.36-4.66,10.49-10.35,11.5-17.37,1.07-7.42,1-14.55,2.55-22,1.2-5.63,4.38-14.65-1.32-19A6.29,6.29,0,0,0,276.13,803.88Z"/><path class="cls-5" d="M275,812.2c-1.41-.28-3.22.58-4.44,1.61-5.77,4.91-8.62,12.18-14,17.26A126.26,126.26,0,0,1,236,847c-2.43,1.5-5.21,3.35-5.42,6.19a8.3,8.3,0,0,0,.68,3.38c2.85,8.1,5.6,16.09,16.11,11.85,5.18-2.09,9.48-5.83,13.6-9.58,4.44-4,9-8.47,10.49-14.26,1.22-4.64.3-9.57.88-14.34.65-5.23,4.36-9.52,4.55-14.75a3.77,3.77,0,0,0-.55-2.45A2.2,2.2,0,0,0,275,812.2Z"/><path class="cls-2" d="M270.23,801.93a224.35,224.35,0,0,1-49.45,41.33c-19.53,12-56.64,22.44-67.08-7.08-6.67-18.87-7.56-37.95-7.71-58a18.89,18.89,0,0,1,1-7.56c1.2-2.87,3.67-5,6.14-6.91,11-8.49,23.59-14.61,36.23-20.35q31.55-14.31,64.23-25.92c8.49,20.65,22.41,44.35,25.13,66.64C279.8,792.82,275.33,796.24,270.23,801.93Z"/><path class="cls-1" d="M262.77,796.91a100.67,100.67,0,0,1-11,13.32C237.53,825,219.58,836.77,199.47,841c-6,1.28-20.53,2.06-24.66-3.86-2-2.91-1.21-7.08.94-9.9s5.38-4.6,8.48-6.35C215.17,803.52,245,781.78,263,751.2c.17-.29,6.45,14.72,6.85,16.75C272,778.9,268.86,787.94,262.77,796.91Z"/><path class="cls-3" d="M257.23,792.81A107.39,107.39,0,0,1,229.59,821c-8.22,5.61-25.27,15.73-34.64,8,1.06-2.54,3.52-4.16,5.86-5.62,13.13-8.21,26.17-15.55,37.77-25.86a177.85,177.85,0,0,0,16.52-17.1c2.71-3.15,15.92-14.36,10.38-2.1A95.65,95.65,0,0,1,257.23,792.81Z"/><path class="cls-5" d="M256.58,792.3c-3.55,5.22-11.9,10.92-14.74,10.9-1,0-2.16-.42-2.38-1.39a2.77,2.77,0,0,1,.61-2c2.78-4.42,6.44-7.79,10.41-11.23,1.58-1.36,3.34-2.76,5.43-2.89a2,2,0,0,1,1.82.67C258.75,787.94,258.1,790.08,256.58,792.3Z"/><path class="cls-2" d="M242.74,677.75c-3.2-1.86-7.69-2-14.2.36-26.19,9.66-53.15,17.22-79,27.79-10,4.08-20.23,9-26.38,17.82-12.74,18.3-4.12,48.19-.29,68.29,4.18,21.92,33.4,24.61,51.82,27.16,7,1,14.23,1.94,21.13.36,6.71-1.53,12.64-5.36,18.25-9.34a254,254,0,0,0,36.56-31.65c5.94-6.23,11.74-13.08,13.94-21.39,4.59-17.31-6.47-34-10.9-50.11C250.71,696.24,250.44,682.2,242.74,677.75Z"/><path class="cls-1" d="M255.34,719.52c-13.1,9.65-24.23,21.5-38.2,30.2-4.62,2.87-9.42,5.5-13.64,8.92a45.08,45.08,0,0,0-16.42,34.59c0,3.27.49,6.77,2.67,9.21,5.7,6.34,14.95-2.21,19.22-5.9l27-23.26c7.73-6.66,15.6-13.49,20.8-22.27S264.28,727.1,255.34,719.52Z"/><path class="cls-3" d="M195.29,795.26c7.28,2,22.76-12.72,26.73-15.94l17.48-14.15c6-4.87,12.19-9.93,15.82-16.75,8.67-16.32-8.87-10-15.84-4.9C222,756.33,195.66,761,191.84,785.79c-.39,2.55-.46,5.33.9,7.52A4.2,4.2,0,0,0,195.29,795.26Z"/><path class="cls-5" d="M219.28,767.39a6.6,6.6,0,0,0,1.4.54,10.69,10.69,0,0,0,5.46-.32,36.8,36.8,0,0,0,17.33-10.36c5.76-6.16,5.2-13.68-4.31-9.56-7.14,3.09-14.21,7.13-19.35,13.06C217.8,763.06,216.54,765.91,219.28,767.39Z"/><path class="cls-2" d="M248.83,666.67c1-4.84,2.64-9.37,3.31-14.69,2.23-17.55-.6-37.33-4.36-54.43-8.22-37.46-46-67.85-88.09-53.94-25.16,8.32-42.64,29.91-51.53,54.12a120.88,120.88,0,0,0-7.29,36.6c-.68,16.77,2.46,33-1,49.73-.78,3.8-1.78,7.72-.91,11.49s4.41,7.29,8.23,6.6c-2,.36-4.19,13.79-4.53,15.75a76.55,76.55,0,0,0-1,17.17c.22,4.07,0,10.11,2.37,13.49,2.79,4,9.76,5.82,14.11,7.26l23.61,7.85c6.4,2.13,12.91,4.28,19.66,4.54,8.11.31,16-2.11,23.76-4.59,23-7.37,46.49-15.86,64.27-32.18,2.66-2.45,5.25-5.17,6.42-8.59,2.52-7.4-1.76-14.12-3.55-21.05a126.67,126.67,0,0,1-4.37-25A38,38,0,0,1,248.83,666.67Z"/><path class="cls-1" d="M248.83,666.67c1-4.84,2.64-9.37,3.31-14.69,2.23-17.55-.6-37.33-4.36-54.43-8.22-37.46-46-67.85-88.09-53.94-25.16,8.32-42.64,29.91-51.53,54.12a120.88,120.88,0,0,0-7.29,36.6c-.48,11.76,1,23.5.61,35.25-.41,10.91,2.42,19.15,10.91,26.74s17.47,12.82,28.78,12.81a186.33,186.33,0,0,0,39.6-4.25c-3.16,2.92-3.79,7.83-2.54,11.94s4.05,7.54,7,10.66a96.81,96.81,0,0,0,11.07,10.06c12.26,9.53,29.08-2.2,40.86-8a45.38,45.38,0,0,0,10.31-6.34c3-2.68,5.4-6.31,5.75-10.33a24.14,24.14,0,0,0-.42-5.81c-1.56-10.12-4.34-20-4.89-30.27A38,38,0,0,1,248.83,666.67Z"/><path class="cls-3" d="M247.31,685c-3.16-.41-6.33,1.2-9.16,2.79-13.33,7.47-26.36,15.52-40.24,21.92-4.88,2.25-13.07,2-11.45,9.14a14.88,14.88,0,0,0,3.14,5.77,41.1,41.1,0,0,0,7.54,7.31c10.65,8,34-9.19,43.71-14.78,4.45-2.54,9.11-5.56,10.89-10.35,2.18-5.89-2.27-15.56-3.58-21.64A6.66,6.66,0,0,0,247.31,685Z"/><path class="cls-5" d="M236.06,696.43a5.53,5.53,0,0,0-2.42-.25A13.19,13.19,0,0,0,228.9,698c-2.16,1.19-4.32,2.39-6.46,3.61a49.61,49.61,0,0,0-9.39,6.41,17.84,17.84,0,0,0-5.74,9.6,2.9,2.9,0,0,0,3.4,4c9.13-.51,23.4-10.55,27.22-18.71.72-1.55,1.07-3.45.18-4.91A3.83,3.83,0,0,0,236.06,696.43Z"/><path class="cls-2" d="M249.54,666.87c1.43-4.76,2-9.87,2.6-14.89,2.23-17.55-.6-37.33-4.36-54.43-8.22-37.46-46-67.85-88.09-53.94-25.16,8.32-42.64,29.91-51.53,54.12a120.88,120.88,0,0,0-7.29,36.6c-.62,15.26,2,30.58-.29,45.78-.66,4.46-3.73,11.43-2.44,15.93,1.54,5.42,9.29,8,13.9,10.05,10.76,4.84,22,9.78,33.83,9.25,6.44-.3,12.68-2.22,18.84-4.13,20.12-6.24,40.29-12.5,59.5-21.1,6.88-3.08,13.77-6.57,19-12A26.83,26.83,0,0,0,249.54,666.87Z"/><path class="cls-1" d="M236,665.39a15.08,15.08,0,0,0-1.36-1.82,87.63,87.63,0,0,0-101.46-23.13c-2.83,1.24-5.7,2.7-7.65,5.1-2.72,3.34-3.21,7.9-3.61,12.18-1.61,17.65-9.39,42.8,15.41,46.55,21.05,3.18,42.31-2.35,61.9-9.71,9-3.41,17.71-8.18,26.81-11.32C234.41,680.35,241,673.21,236,665.39Z"/><path class="cls-3" d="M226.88,662.82a17.78,17.78,0,0,0-2.82-3.46c-3.71-3.51-8.56-5.53-13.31-7.39-20.86-8.19-44.57-14.89-65.19-6.15a30.77,30.77,0,0,0-8.46,5.11A23.19,23.19,0,0,0,129.93,671c.68,5.28,2.5,14.84,6.83,18.19,2.82,2.19,6.39,3.18,9.91,3.81,21.37,3.83,42.92-4,63.2-11.72,6-2.26,12.67-7.81,18.85-8.12A12.9,12.9,0,0,0,226.88,662.82Z"/><path class="cls-5" d="M215.92,660.6c-6.17-4.59-18.25-8.08-22.53-8.62-6.33-.81-13.3-.71-18.39,3.13-5.48,4.14-3.85,10.06-1.18,15.5,2,4,5.19,7.68,9.52,8.68a18.46,18.46,0,0,0,6.83,0,85.57,85.57,0,0,0,22.7-6.64C222,668.5,220.75,664.21,215.92,660.6Z"/><path class="cls-6" d="M248.83,666.67c1-4.84,2.64-9.37,3.31-14.69,2.23-17.55-.6-37.33-4.36-54.43-8.22-37.46-46-67.85-88.09-53.94-25.16,8.32-42.64,29.91-51.53,54.12a120.88,120.88,0,0,0-7.29,36.6c-.68,16.77,2.46,33-1,49.73-.78,3.8-1.78,7.72-.91,11.49s4.41,7.29,8.23,6.6a76.25,76.25,0,0,0-4.48,42.26,9,9,0,0,0,1.73,4.48c1.75,2,4.72,2.19,7.15,3.24,7.54,3.24,8.49,13.25,9,21.41A147,147,0,0,0,122.89,792c.67,3.52,1.56,7.2,4,9.84,2.12,2.3,5.15,3.51,8.07,4.64l9.52,3.71a6.23,6.23,0,0,1,3,1.91,6,6,0,0,1,.8,2.08l4.23,16.58c1.39,5.44,2.87,11.09,6.5,15.39s11.73,6.82,14.77,6.65c.3,3.59,3.08,13.16,3.8,14.74,1.79,3.87,5.07,7.38,7.32,11,4.55,7.42,11.58,20.4,21.33,21.8,14.53,2.07,24.47-2.46,24.47-2.46a29.35,29.35,0,0,0,31.35,6.55c13.43-5,18.37-10.05,18.37-10.05s15.37-5.08,27.7-14,5.71-22.59,5.71-22.59,13.57-8.34,11.14-18S312.87,811,308.31,806.18c-8.2-8.63-20.6-4.84-25.54-16.31A637.32,637.32,0,0,1,253.69,707c-2.73-9.89-5.23-20-5.78-30.27A38,38,0,0,1,248.83,666.67Z"/><path class="cls-7" d="M289.53,631.37s2.94-64.79-21.34-97S190,486.92,144.43,508.91c-41.93,20.26-67.38,73.37-63,118.76a213.55,213.55,0,0,1,55-9.57c21.9-.9,44.25,1.69,64.33,10.43,18.07,7.86,33.53,20.33,48.18,33.25,11.06,9.76,26,17.84,33.8-1.08C287.65,649,289.53,631.37,289.53,631.37Z"/><path class="cls-8" d="M78.71,624.86a35,35,0,0,0,20.38,21.07c-1.51-.6,3.14-15.25,3.9-16.74,2.72-5.31,5.29-7.24,10.65-8.76,13.63-3.86,31.46-2.67,45.43-1.56,22.26,1.77,44.48,8.16,62.78,20.92,11.18,7.8,20.55,18.34,31.2,26.85,15.63,12.47,20.15,1.28,11.48-13.18-9.36-15.58-24.13-29.27-38.9-39.64-31.72-22.29-72-32.86-110.58-27-9.57,1.45-19.28,3.95-27.06,9.7C77.66,604.15,75.48,615,78.71,624.86Z"/><path class="cls-9" d="M174.69,498.68C149,504,114.39,520.07,102.2,544.42c25.73-12,56.84-9.16,82.42,3.19,46.83,22.61,83.44,59.41,99.15,110,10-21.5,10.58-50.91,5.2-73.6C276.82,532.79,231.1,486.92,174.69,498.68Z"/><path class="cls-10" d="M262,581.41c15.07,22.57,25,48.4,23.81,73.71,1-22.83,5.15-42.65,2.2-65.93-2.49-19.74-7.56-38.91-18.52-55.87C259,517,238.68,506.73,219.92,501.51c-13-3.61-22.27-6.34-35.65-4.8-15.64,1.8-31.36,5.27-45,13.06,27.22-2.33,54.61,7.43,76.69,23.47A194,194,0,0,1,262,581.41Z"/><path class="cls-6" d="M289.53,631.37s2.94-64.79-21.34-97S190,486.92,144.43,508.91a100.24,100.24,0,0,0-43.94,42c-9.91,17.87-20.12,42.66-21.62,63-.9,12,3.68,25.53,14.57,30.77,2.41,1.16,5.88,1.57,7.25-.72a6.65,6.65,0,0,0,.62-3.23,40.71,40.71,0,0,1,3.12-14.17c4.65-11.12,41.93-9.06,52.34-8.78,25.41.68,51.51,8,70.2,25.2,6.34,5.83,11.71,12.67,18.13,18.42,11.52,10.3,30.18,17.6,37.72-.73C287.65,649,289.53,631.37,289.53,631.37Z"/><path class="cls-1" d="M120.83,525.18c-51.45-5.32-64.32,8.48-28.08,39.53,0,0,118.4-23.94,181.06,67.9C252.59,587,214.22,523.89,120.83,525.18Z"/><path class="cls-2" d="M100.06,524.07c-33.45.4-38,14.32-7.31,40.64,0,0,19.4-3.92,46.66-2.5C129.65,546.21,116.17,532,100.06,524.07Z"/><path class="cls-1" d="M166.21,530.29a171.94,171.94,0,0,0-45.38-5.11,184,184,0,0,0-20.77-1.11c16.11,7.88,29.59,22.14,39.35,38.14a204.08,204.08,0,0,1,53,9.67A113.42,113.42,0,0,0,166.21,530.29Z"/><path class="cls-3" d="M166.21,530.29a113.42,113.42,0,0,1,26.22,41.59,166,166,0,0,1,33.91,15.53c-2.91-12.25-6.93-24.19-13-35A137.81,137.81,0,0,0,166.21,530.29Z"/><path class="cls-5" d="M273.81,632.61c-12.15-26.15-30-58-60.5-80.21,6.1,10.82,10.12,22.76,13,35A153.08,153.08,0,0,1,273.81,632.61Z"/><path class="cls-6" d="M120.83,525.18c-42.07,2.44-64.32,8.48-28.08,39.53,0,0,118.4-23.94,181.06,67.9C252.59,587,214.22,523.89,120.83,525.18Z"/><path class="cls-9" d="M101.44,726.69c-6.09,3.08-8.55,40.92-1.61,60.81s40.51,27,40.51,27,32.46-44.77,31.95-60S101.44,726.69,101.44,726.69Z"/><path class="cls-10" d="M139.58,740c-.15.4-.28.81-.4,1.21-2.37,7.65-3.8,16.51.57,23.24,2.59,4,6.83,6.58,10.93,9,2.48,1.48,5,3,7.92,3.39,9.14,1.27,13.93-15.3,13.69-22.4-.24-7.31-25.52-20.88-30.62-17.48A6,6,0,0,0,139.58,740Z"/><path class="cls-7" d="M101.43,726.69c-6.08,3.09-8.54,40.92-1.6,60.81s40.5,27,40.51,27c3.09.67,17.61-24.15,14.18-28.59-1.87-2.41-5-3.41-7.93-4.31-7.19-2.23-15.05-5.35-18.15-12.19-2.87-6.34-.64-13.66.63-20.5,1.85-10,.16-15.67-8.82-18.29C117.26,729.7,104.43,725.18,101.43,726.69Z"/><path class="cls-8" d="M101.43,726.7c-6.08,3.11-8.54,40.92-1.6,60.8s40.51,27,40.51,27c2.6-3.59,12.66-13.32,7.75-17.56-2.1-1.81-5.12-1.95-7.87-2.35a34.32,34.32,0,0,1-26.14-19.91c-5.2-12-3-25.8-.23-38.6a10,10,0,0,0,.27-4.51C113.37,728.54,104.15,725.32,101.43,726.7Z"/><path class="cls-31" d="M101.44,726.69c-6.09,3.08-8.55,40.92-1.61,60.81s40.51,27,40.51,27,32.46-44.77,31.95-60S101.44,726.69,101.44,726.69Z"/><path class="cls-2" d="M101.44,726.69S86,710,101.44,709.1c19.4.8,85.9,20.53,91,38s-43,80.54-43,80.54-9,6.73-9.08-13.19c0,0,16.14-21.84,23.36-36.68s14.73-26.85,2.51-32.58S101.44,726.69,101.44,726.69Z"/><path class="cls-1" d="M101.44,709.1c-15.43.88,0,17.59,0,17.59s9,2.2,20.48,5.18a182,182,0,0,1-3.11-20A107.38,107.38,0,0,0,101.44,709.1Z"/><path class="cls-3" d="M118.81,711.9a182,182,0,0,0,3.11,20c11.07,2.88,24.39,6.5,34,9.57a66.5,66.5,0,0,1-4.42-19.88A283.74,283.74,0,0,0,118.81,711.9Z"/><path class="cls-5" d="M192.43,747.11c-2.58-8.86-20.94-18.29-40.94-25.55a66.5,66.5,0,0,0,4.42,19.88,96.64,96.64,0,0,1,10.3,3.76c8.76,4.11,7.38,11.44,3.24,20.73,3.58,5,7.48,9.87,11.49,14.53C188.71,766.74,194.34,753.69,192.43,747.11Z"/><path class="cls-3" d="M169.45,765.93c-1.64,3.67-3.7,7.65-5.75,11.85a190.33,190.33,0,0,1-11.41,19.43,119,119,0,0,0,10.77,11.47c5.74-8.34,12.35-18.45,17.88-28.22C176.93,775.8,173,771,169.45,765.93Z"/><path class="cls-1" d="M152.29,797.21c-6.18,9.45-11.95,17.25-11.95,17.25.12,19.92,9.08,13.19,9.08,13.19s6.06-7.94,13.64-19A119,119,0,0,1,152.29,797.21Z"/><path class="cls-31" d="M101.44,726.69S86,710,101.44,709.1c19.4.8,85.9,20.53,91,38s-43,80.54-43,80.54-9,6.73-9.08-13.19c0,0,16.14-21.84,23.36-36.68s14.73-26.85,2.51-32.58S101.44,726.69,101.44,726.69Z"/></g><path class="cls-1" d="M568.39,317.59s69.09,10.54,84.05-8.8c10.43-13.48-26.83-22.61-26.83-22.61S687,290,688.85,270.72s-30.3-23.39-30.3-23.39,82.15,6.24,84.77-19.07C745.14,210.63,681,207,681,207s83.17.95,83.94-23.9c.72-23.61-56.86-15.4-56.86-15.4s88-17.16,88.28-41.25-70.68-8.5-70.68-8.5S806.45,86.28,803,68.59c-7.4-38.34-158.87,41.3-158.87,41.3s11,127.56-88.93,180.54C548.44,320.85,568.39,317.59,568.39,317.59Z"/><path class="cls-3" d="M638.38,276.66a22.91,22.91,0,0,0,10.83,7.88c10.84,3.79,38.45-1.1,39.64-13.82,1.82-19.31-30.3-23.39-30.3-23.39s82.15,6.24,84.77-19.07C745.14,210.63,681,207,681,207s83.17.95,83.94-23.9c.72-23.61-56.86-15.4-56.86-15.4s88-17.16,88.28-41.25-70.68-8.5-70.68-8.5S806.44,86.28,803,68.59c-6.62-34.41-82,12.27-90.36,23.61A8.5,8.5,0,0,0,710.79,96c-.39,2.73,1.85,5.44,4.65,6.76s6,1.5,9.11,1.5A86.55,86.55,0,0,0,766.9,93.44L730.48,115l7.38,0q-20.54,10.71-40.38,22.4c-4.1,2.43-8.58,5.48-8.85,9.95-1.2,20.4,46,9.57,56.1,7.49a433.45,433.45,0,0,0-44.57,22.53c-5.39,3.13-11.38,8.31-8.75,13.79,1.12,2.34,3.59,3.94,6,5.25a62.47,62.47,0,0,0,20.28,6.68,103.4,103.4,0,0,0-50.81,10.71c-4.51,2.3-9.14,5.39-10.06,10-1.18,5.94,4.32,11.58,10.15,15s12.61,5.83,17,10.68c-10.29-1.51-21-3-30.81-.53s-18.59,10.2-18,19.45A15.88,15.88,0,0,0,638.38,276.66Z"/><path class="cls-5" d="M660.65,273.81a10.88,10.88,0,0,0,2.79,5.73c12.3,13.34,31.86-7.08,21.83-20.17-5.53-7.23-17.59-10.88-26.72-12,0,0,82.15,6.24,84.77-19.07C745.14,210.63,681,207,681,207s83.17.95,83.94-23.9c.72-23.61-56.86-15.4-56.86-15.4s88-17.16,88.28-41.25-70.68-8.5-70.67-8.5c19.49-7.66,39-16.38,56.42-27.2,7.11-4.42,20.32-11.54,21-20.45,2-25.85-38.12,2.33-44.87,8.38-3.59,3.21-7,8.46-3.53,12.09l18.79.94a94.36,94.36,0,0,0-30.66,19.43l29.87.9c-8.64,2.83-17.3,6-24.13,11.46s-11.64,13.39-10.7,21.72a78.47,78.47,0,0,0,34.66,3.63,158,158,0,0,0-43.81,15.56,32.63,32.63,0,0,0,18.26,3c-14.35,2.81-31.43,8.12-33.36,21.18a68.86,68.86,0,0,0,34.24,7.57l-39.63,9.23L732.54,217c-6.18-1.35-12.59-2.71-18.74-1.72s-12,5-12.54,10.62c-.72,7.46,7.57,13.26,15.12,16.9a174.76,174.76,0,0,0-44,9l5.43,5.93a19.2,19.2,0,0,0-10.29,2.44A13.69,13.69,0,0,0,660.65,273.81Z"/><path class="cls-2" d="M568.39,317.59c10.5-1.71,25.05,6.53,34.48-1-8.82.79-14.17-10.91-9.38-17.42s14.73-8.16,23.64-7.81c-13.3-1.18-18.06-18.78-10.35-28.18s21.75-12.34,34.69-14.68l-15.71-10.22c6.88-15.33,23.65-26.43,42.27-28-11.1-3.14-13.09-17.88-6.12-25.77s18.88-10.61,30-12.88l-26-4.19c-3.12-20.2,14.37-40.31,36.83-42.35l-30.65.75c13.86-23.89,36.4-43.43,63.56-55.1-11.12,3.93-92.37,28.85-91.48,39.15,0,0,10.94,127.56-88.93,180.54C548.44,320.85,568.39,317.59,568.39,317.59Z"/><path class="cls-32" d="M568.39,317.59s69.09,10.54,84.05-8.8c10.43-13.48-26.83-22.61-26.83-22.61S687,290,688.85,270.72s-30.3-23.39-30.3-23.39,82.15,6.24,84.77-19.07C745.14,210.63,681,207,681,207s83.17.95,83.94-23.9c.72-23.61-56.86-15.4-56.86-15.4s88-17.16,88.28-41.25-70.68-8.5-70.68-8.5S806.45,86.28,803,68.59c-7.4-38.34-158.87,41.3-158.87,41.3s11,127.56-88.93,180.54C548.44,320.85,568.39,317.59,568.39,317.59Z"/><polygon class="cls-33" points="636.94 340.69 644.49 410.66 585.11 446.05 362.51 428.86 223.3 394.4 260.42 280.63 636.94 340.69"/><path class="cls-1" d="M257.78,150.23c91.19-67,226.52-63.88,314.36,8.49,72.55,59.78,68.06,165.45,68.06,165.45s28.76-2.47,15.85,19.16c-27.46,14-64.47,20.74-116,22.35s-130.86-3.45-163.57-10.06c-9.88-2-104.07-23.48-104.07-23.48l-13.92,33.42,10.83,12,11.64-28.36s117.82,12.2,128.18,60.47c181.4,22.64,227.76-8.34,227.76-8.34l23.38-12s-12.13,96.59-23.53,148.17-32,52.94-95.5,62.86-128.91-9.59-160.82-30.22c-47.24-30.54-156.76-129.74-156.76-129.74s2.76,25.92-32.93,25.88-68.64-34.09-67.39-75.7c1-32.4,19.63-62.31,55.25-63.38C178.72,326.5,184.55,204.06,257.78,150.23Z"/><path class="cls-3" d="M152.26,352.51a39.54,39.54,0,0,1,10.89,8.4,95.25,95.25,0,0,1,23.52,43.95c2.64,11.68,2.1,25.81-7.78,33.13-10.3,7.62-26.18,3.56-35.14-5.49-14.48-14.62-36.51-71.36-4.31-81.47C143.78,349.67,148.18,350.51,152.26,352.51Z"/><path class="cls-3" d="M416.62,413.42c34.17.27,68.51,4.07,102.71,4.47,23.83.28,47.84-.47,71.43-3.87,15.82-2.28,31.92-5.4,46.12-12.7l23.38-12c-4.49,2.3-5.65,42-6.53,48.13-1.81,12.62-4.84,25.1-6.28,37.62-3,26.46-4.14,51.94-26.81,71-22.32,18.76-55.1,20.59-84.54,16.84-51.53-6.58-97.68-54.58-120.71-97.06C406.64,449.71,400,431.29,404,413.5Q410.3,413.37,416.62,413.42Z"/><path class="cls-5" d="M486.3,418.79a10.26,10.26,0,0,1,.43-2.08c10.75,1.2,21.74,1.05,32.6,1.18,23.83.28,47.84-.47,71.43-3.87,15.82-2.28,31.92-5.4,46.12-12.7l23.38-12c-2.14,17,0,66.7-17,76.75-6,3.57-13.48,3.94-20.58,4.14-23.5.64-47.27.44-70.15-4.76s-45-15.78-60.16-33C489,428.56,485.82,423.66,486.3,418.79Z"/><path class="cls-3" d="M593.24,191.93c.36-2.35,1.15-4.67,3.23-5.81,10.71-5.84,25.61,46,27.29,51.3,8.12,25.89,17.4,52.87,14.3,80.17-.18,1.53-.53,3.28-1.93,4-2,1.07-4.35-.73-5.85-2.41-30.27-34-41.17-81-37.24-125.54C593.09,193.1,593.15,192.51,593.24,191.93Z"/><path class="cls-5" d="M605.77,196.62l.15-.31c10.76,5.76,14.3,29.83,17.84,41.12,1.92,6.1,18.35,57.72,10.85,56.64-1.66-.24-2.79-1.73-3.68-3.1-10.36-16-16.17-34.17-21.86-52.15C604.9,225.69,599.86,210,605.77,196.62Z"/><path class="cls-3" d="M550.87,228.13c-5.79,25-16.29,50.34-37.25,66.16-17.75,13.4-41.42,18.38-63.93,16.41s-44-10.42-63.39-21.5c-18.49-10.54-35.9-24.05-46.05-42.23-16.91-30.29-10-69.61,11.94-96.8C374.87,122,416,99.32,452.85,105.63c22.64,3.88,52.7,8.84,70,21.45C555.48,150.8,559,193.07,550.87,228.13Z"/><path class="cls-5" d="M506.62,206.82c3.42,21.66-1.32,44.62-13.75,67.45-2.46,4.52-7,9.59-12,7.87,2.41-24-6.82-48.81-24.52-65.93-6.28-6.07-13.5-11.16-20.68-16.23l-46.82-33a131.26,131.26,0,0,1,21.75-25c4.14-3.69,8.79-7.25,14.35-8.19,12.34-2.07,34.47,3.42,43.66,11C490.55,163,503,184.18,506.62,206.82Z"/><path class="cls-2" d="M524.9,131.53c.32.72,36.38,14.79,41.75,18.83,12.67,9.52,16.48,15.43,12.78,31.9-7.27,32.33-2.58,66.08,5.45,98.25,2.39,9.57,5.17,19.29,11,27.37s15.43,14.32,25.69,13.94l-55,13.35A467.89,467.89,0,0,0,524.9,131.53Z"/><path class="cls-2" d="M257.78,150.23c29-21.34,58.42-31.76,93.53-38.86-27.15,15.17-51.6,36.18-65.49,63.19s-15.94,60.54-.72,86.89c19.08,33,57.56,45.35,91.45,59.13,42.39,17.25,91.75,17,136.86,22-41.83-4.61-83.79-5.2-125.59-11.33-16.87-2.47-48.1-14.68-64.25-11.38-14.1,2.88-14.12,12.57-5.42,25.86-10-3.66-23.46-17.5-34.94-16.74-16.53,1.09-19.22,23.34-24.74,36.6l10.83,12,11.64-28.36c3-7.24,78.25,16.3,85.57,21a111.39,111.39,0,0,1,36.92,38.76c-14.11-25-55.14-31.9-77.91-15.63-12.35,8.83-20,23.39-20.09,38.16-.38,73.4,78.65,130.75,144,150.73l49.83,15.23c-8.55-2.61-24,3.91-33.64,3.09s-17.92-3.44-27.12-6.31c-20.27-6.32-40.26-12.51-58.11-24-47.24-30.54-156.76-129.74-156.76-129.74,3.4,32-45.78,29.12-62.93,15.19,11.23,4.78,25.89.08,31.86-10.21,3.27-5.65,4-12.31,4-18.77.08-15.89-3.82-31.6-9.5-46.53-3.77-9.87-8.47-19.68-16.08-27.26s-18.61-12.65-29.48-11.2c-.68.09,18.8-15.91,21.28-17.39,8.78-5.25,12-4,16.91-13.46,7.06-13.59,6.36-35.48,10.53-50.4C201.78,219.19,221.61,176.81,257.78,150.23Z"/><path class="cls-20" d="M219.35,178.78c-9.94,43.9,1.12,91.76,29.48,127.53,2.16,2.72,4.52,5.66,4.49,9.08,0,4-3.29,7.21-6,10.29-12.33,14.08-15.64,34.88-8.25,51.84s25.15,29.34,44.28,30.84l-3.63,15.16c-5.54-6-17,.15-18.07,8.1s4.15,15.3,9.11,21.75q31.89,41.52,63.79,83a630.41,630.41,0,0,1-70.51-60.87c-20.11-20.16-33.35-38.42-58.12-13,1.69-26.39,6.25-52.26-.08-78.57-6.48-26.93-23.67-48-49.77-59.34,6.2-9.57,18.46-12.67,24.73-21.51,10.57-14.89,11-41,14.37-58.28C199.71,221.47,214.31,201,219.35,178.78Z"/><path class="cls-34" d="M257.78,150.23c91.19-67,226.52-63.88,314.36,8.49,72.55,59.78,68.06,165.45,68.06,165.45s28.76-2.47,15.85,19.16c-27.46,14-64.47,20.74-116,22.35s-130.86-3.45-163.57-10.06c-9.88-2-104.07-23.48-104.07-23.48l-13.92,33.42,10.83,12,11.64-28.36s117.82,12.2,128.18,60.47c181.4,22.64,227.76-8.34,227.76-8.34l23.38-12s-7.48,78.19-18.87,129.77-25.3,69.88-88.76,79.8-152.8-7.78-195-44.43S223.65,440.39,223.65,440.39s-19.77,25.89-32.93,25.88c-22.44,0-66.52-43.42-65.27-85,1-32.39,17.51-53,53.13-54.05C178.72,326.5,184.55,204.06,257.78,150.23Z"/><rect class="cls-35" x="376.34" y="436.5" width="22.78" height="59.91" rx="10.33"/><rect class="cls-35" x="421.9" y="452.62" width="22.78" height="59.91" rx="9.72"/><rect class="cls-35" x="475.05" y="457.19" width="22.78" height="69.28" rx="10.33"/><path class="cls-35" d="M547.36,531.45h0c-6.28-.31-11.06-4.75-10.68-9.91l4.38-59.95c.38-5.17,5.78-9.1,12.06-8.78h0c6.28.31,11.06,4.74,10.69,9.9l-4.39,60C559,527.83,553.64,531.76,547.36,531.45Z"/><path class="cls-35" d="M604,526.61h-.31c-6.2-.31-10.91-4.69-10.54-9.78l4-55.25c.37-5.09,5.7-9,11.89-8.66l.31,0c6.2.31,10.92,4.68,10.54,9.77l-4,55.25C615.47,523,610.14,526.92,604,526.61Z"/><path class="cls-1" d="M249.07,357s-89.56-1-103.88-26.81c-10-18,39.13-21.61,39.13-21.61S106,301.22,108.23,278s43.69-21.86,43.69-21.86S46.9,247.5,49.54,217c1.84-21.26,83.55-13.1,83.55-13.1S28,188.79,32.9,159.15c4.63-28.16,75.28-7.2,75.28-7.2S1.33,114.46,6.58,85.81s91.09,3.68,91.09,3.68S3.29,36.19,11.74,15.86c18.32-44,190.57,80,190.57,80S158.57,245,272,327.37C273.46,364.78,249.07,357,249.07,357Z"/><path class="cls-3" d="M256.2,335.23c-11.57-1-23.28-2.24-34.85-3.57-4.1-.48-8.29-1-12-2.72s-6.86-5-7.24-9c9-8.61,27.44-7.09,39.18-8.4-9.76,1.09-27.58-13.86-36.17-17.76-12.63-5.74-25.61-9.15-37.47-16.71-2.55-1.63-5.12-3.42-6.63-6s-1.66-6.09.43-8.28,5.33-2.39,8.29-2.28c12.39.43,23,6.12,35.43,6.06-2.67-24.14-48.15-33.14-66.9-41.29-5.7-2.47-12.22-6-12.56-12.06,4.67-4.48,12.24-4,18.71-2.94,14.63,2.46,29.17,6.21,42.27,12.81-14.38-19.58-38.21-31.5-58.38-44.85-2.86-1.89-5.79-3.86-7.68-6.65s-2.5-6.67-.55-9.47a109.23,109.23,0,0,1,47.85,6.55c-13.28-10.08-26.93-23.9-41.81-31.62-10-5.19-20.27-6.91-29.22-14.59-4.23-3.64-8.31-7.94-9.31-13.32-.27-1.45-.17-3.21,1.1-4.07a5,5,0,0,1,3.11-.47c30,2,53.46,14.64,77,31.48C158,122.6,151.13,112.89,137,102.35a226.09,226.09,0,0,1-43.1-42c-2.74-3.5-5.44-8.26-3-12,2.1-3.2,6.78-3.61,10.66-3.1,11.38,1.49,20-.9,30.75,4.78,12.47,6.56,24.25,14.91,36,22.61,2.51,1.64,34.79,20.63,34,23.2-8.41,29.06-10,61.07-7.21,90.83,2.56,27.49,9.71,54.68,22.87,79.22,11.16,20.05,53.73,45.9,50.85,70.29Q262.55,335.77,256.2,335.23Z"/><path class="cls-5" d="M256.12,323.47c-34.63-18.71-58.05-53.55-71.37-89.91a257.36,257.36,0,0,1-14.24-115c.36-3.37.74-6.94-.82-10-1.28-2.45-3.66-4.16-6-5.78L105.81,62c-7-4.95-14.87-13.35-10.2-20.51,25.94,3.13,45.22,18.27,66.17,32,2.51,1.64,34.78,20.63,34,23.2-8.42,29.06-10,61.07-7.22,90.83,2.56,27.49,9.71,54.68,22.87,79.22,5.59,10.42,15.39,19.71,23.33,28.48,6.32,7,30.13,24.28,31.3,33.06C262.68,326.82,259.35,325.21,256.12,323.47Z"/><path class="cls-2" d="M249.07,356.88c-4.12.08-8-.1-10.29-.19-25.34-1.07-79.73-1.45-93.59-26.47-10-18,39.13-21.61,39.13-21.61S106,301.22,108.23,278s43.69-21.86,43.69-21.86S46.9,247.5,49.54,217c1.84-21.26,83.55-13.1,83.55-13.1S28,188.79,32.9,159.15c4.63-28.16,75.28-7.2,75.28-7.2S1.33,114.46,6.58,85.81s91.09,3.68,91.09,3.68S3.3,36.19,11.74,15.87c8.17-19.68,68.62-4.71,74,9.65C69.19,12,44.58,8.23,24.23,16.11a793.42,793.42,0,0,1,104,88.8C99.63,89.74,69.52,74.18,36.67,73.58c-4.6-.09-9.79.39-12.74,3.8-6.17,7.11,3.3,16.69,11.6,21.23q57.33,31.27,114.65,62.56Q99.81,150.69,48.6,144.3c4.78,16.85,25.73,22.82,43.09,28a243,243,0,0,1,76.47,38.82,316,316,0,0,0-109-6.94c8.81,13.54,27.55,16.58,43.94,19.58A332,332,0,0,1,186,250.57l-49.78,7.82c-5.13.8-11.7,3.28-11.19,8.23.36,3.45,4.15,5.41,7.46,6.77l81.63,33.67a342.43,342.43,0,0,1-56.68,3.75c-4.87,6.51,4.69,13.88,12.58,16.34a408.86,408.86,0,0,0,44.73,11.16c7.52,1.44,45.69,1.76,49.35,6.21C272.41,354.61,259.84,356.66,249.07,356.88Z"/><path class="cls-36" d="M249.07,357s-89.56-1-103.88-26.81c-10-18,39.13-21.61,39.13-21.61S106,301.22,108.23,278s43.69-21.86,43.69-21.86S46.9,247.5,49.54,217c1.84-21.26,83.55-13.1,83.55-13.1S28,188.79,32.9,159.15c4.63-28.16,75.28-7.2,75.28-7.2S1.33,114.46,6.58,85.81s91.09,3.68,91.09,3.68S3.29,36.19,11.74,15.86c18.32-44,190.57,80,190.57,80S158.57,245,272,327.37C273.46,364.78,249.07,357,249.07,357Z"/><path class="cls-1" d="M303.55,142.47l-16-23.73s27.9-66,118.94-88.79c84.16-21.07,209.8,73.33,188.37,302.35l-25.41,2.13s10.66-130.11-48.22-186.84C467.81,105.19,417.58,94.91,303.55,142.47Z"/><path class="cls-3" d="M304,95.47c1.35-14.27,27.91-30.5,39.5-38.19a203.37,203.37,0,0,1,63-27.33,104.43,104.43,0,0,1,46.83-.38c46.47,9.83,98.55,39.88,120.86,78.52,15.84,27.43,22.74,68.67,28.75,99.39,3.64,18.56.82,38.31,1.78,57.16,1,20.34-10.82,33.16-10.82,53.31-8.84-20.58-5.92-43.77-7-66-1-20.41-5.48-40.54-11.47-60.15-10.11-33.05-25.25-65.88-51.68-89.22C495,77.22,455,65.43,415.92,65.91S338.68,78.33,304,95.47Z"/><path class="cls-5" d="M349.42,54.75c5-13.93,43.51-21.4,57.07-24.8a104.43,104.43,0,0,1,46.83-.38c46.47,9.83,98.55,39.88,120.86,78.52,15.84,27.43,22.74,68.67,28.75,99.39,4.46,22.47,4.67,41.8-.21,63.94-3.64-4.76-4.52-10.9-5.21-16.77-7.31-62.18-13.39-122.18-62-168.66-22.71-21.69-52.41-37.25-84.33-41.6-16.7-2.27-32.75-1.26-49.37,1.44C396.25,46.73,350.49,51.78,349.42,54.75Z"/><path class="cls-2" d="M304.11,142.14c-5.25-7.75-8.93-17.34-14.59-25.67a253.18,253.18,0,0,1,102.25-37c54.31-7.17,115.81,6.65,147.67,49.39,10.51,14.1,17.2,30.47,22.76,47A420.76,420.76,0,0,1,584,310.3c0,10.23-3.05,39.58-14.31,20.94-2.47-4.09.56-18.24.54-23-.28-53.67-7.36-120.52-48.93-160.6C460.46,89,373,114.39,304.14,142.19Z"/><path class="cls-37" d="M303.55,142.47l-16-23.73s27.9-66,118.94-88.79C490.65,8.88,645.16,77.66,594.86,332.3l-25.41,2.13s10.66-130.11-48.22-186.84C467.81,105.19,417.58,94.91,303.55,142.47Z"/><g id="Layer_28" data-name="Layer 28"><ellipse class="cls-18" cx="300.82" cy="818.3" rx="195.15" ry="203.19" transform="translate(-138.08 64.99) rotate(-10.04)"/><path class="cls-13" d="M309.57,880.7c50.77-9.9,96-17.6,145.69-30.8,5.93-1.36,11.66-2.16,17.36-2.94.42-6.82,1.12-13.91,3.6-16.65a16.55,16.55,0,0,1,5.24-3.44l13-6.34c-7.25-2-13.49-5.45-20.22-8.87a273.56,273.56,0,0,0-2.05-27.81,178.88,178.88,0,0,0-14.31-51.5,196.25,196.25,0,0,0-26.26-42.71C324.85,749.13,218.24,808.38,112.26,869.53a203.64,203.64,0,0,0,18.8,43.54c49-6.59,95.13-16.14,145.4-24.67C288.6,886.2,298.54,882.9,309.57,880.7Z"/><path class="cls-15" d="M463.51,884.85A40.33,40.33,0,0,0,477.39,880c-2.67-1.56-5.42-3.2-7.18-5.73-3.24-4.68.28-9.68,1.31-14.51.62-2.89.79-7.77,1.1-12.79-5.7.78-11.43,1.58-17.36,2.94-49.66,13.2-94.92,20.9-145.69,30.8-11,2.2-21,5.5-33.11,7.7-50.27,8.53-96.4,18.08-145.4,24.67A198.86,198.86,0,0,0,165.9,957.4c94-7.67,187.21-19.62,279.72-34.67C452.58,910.76,458,898.2,463.51,884.85Z"/><path class="cls-15" d="M252.18,975.29c-20.79,2.22-41.59,2-62.39,1.54,37.71,25.95,84.11,38,131.63,30.25,1.29-.21,2.57-.43,3.86-.67a176.3,176.3,0,0,0,41.2-13.06c11.29-5.18,22.62-16.7,35.79-12.88a26.6,26.6,0,0,1,0-7.24,8.39,8.39,0,0,1,3.87-5.42C354.83,969.32,303.21,969.64,252.18,975.29Z"/><path class="cls-13" d="M252.18,975.29c51-5.65,102.65-6,154-7.48,1.27-.9,2.69-1.69,4-2.69,7.73-5.77,14.54-13.77,20.67-21.14a153.06,153.06,0,0,0,14.76-21.25c-92.51,15-185.75,27-279.72,34.67a194.07,194.07,0,0,0,23.89,19.43C210.59,977.24,231.39,977.51,252.18,975.29Z"/><path class="cls-15" d="M112.26,869.53c106-61.15,212.59-120.4,319.32-179.89-41.1-51-106.53-80.52-173.52-69.63C156.71,636.48,88.73,736.49,106.23,843.38A209.82,209.82,0,0,0,112.26,869.53Z"/><path class="cls-17" d="M419.27,796.06c1,6.11-2,10,4.87,13.14a43.89,43.89,0,0,1,14.06,10.06,68.3,68.3,0,0,0-17.32,5c-.49.21-1.48,21-1.89,23.36-.72,4-3.72,10.36-3.29,14.26.52,4.83,5,8.16,8.5,11.91-3.65,1-7.59.62-11.21,1.73-6.68,2-6.3,10.5-9.11,15.87a136.3,136.3,0,0,1-15,22.72c-4.63,5.69-10,13.28-16.84,16.33q.35,7.14.67,14.27c-7.5-1.88-11-3.47-17.85-.52-5.26,2.28-10.08,5.84-15.34,8.24a131.49,131.49,0,0,1-33.4,10.16c-75.56,12.28-147.38-42.35-160.42-122a151.64,151.64,0,0,1,12.88-90.39,143.21,143.21,0,0,1,25.07-36.22c7.7-8.07,27.16-17.35,30.6-27.87,1.13-3.45.84-7.19.54-10.81,12.27,10,30.67,1,44.09-1.23C334.41,661.74,406.23,716.38,419.27,796.06Z"/><path class="cls-38" d="M402.45,795.21c.9,5.5-1.81,9,4.39,11.81a39.81,39.81,0,0,1,12.69,9.05,62.09,62.09,0,0,0-15.64,4.48c-.45.19-1.36,18.93-1.73,21-.65,3.6-3.36,9.32-3,12.83.46,4.34,4.53,7.32,7.67,10.7-3.3.92-6.86.56-10.13,1.56-6,1.84-5.7,9.45-8.23,14.28a124.5,124.5,0,0,1-13.59,20.44c-4.19,5.11-9.07,12-15.22,14.69l.6,12.83c-6.78-1.68-10-3.11-16.13-.45-4.75,2-9.11,5.26-13.86,7.42A119.7,119.7,0,0,1,300.12,945c-68.25,11.09-133.07-38-144.8-109.63A135.92,135.92,0,0,1,167,754.1a128.79,128.79,0,0,1,22.67-32.58c7-7.26,24.54-15.62,27.65-25.08,1-3.1.77-6.46.5-9.72,11.07,9,27.7.84,39.82-1.13C325.89,674.49,390.72,723.57,402.45,795.21Z"/><ellipse class="cls-39" cx="300.82" cy="818.3" rx="195.15" ry="203.19" transform="translate(-138.08 64.99) rotate(-10.04)"/><path class="cls-15" d="M333.86,741c6.62-3.3,14.34-5.5,22.07-8.8a20.69,20.69,0,0,0,4.16-2.79c-21.22-24.85-51.36-40.37-84.82-40.37C211.05,689.05,159,746.23,159,816.78a139.91,139.91,0,0,0,2.84,28.15c9-6.37,17-14.2,26.33-19.23C238.94,799.31,284.19,771.81,333.86,741Z"/><path class="cls-15" d="M192.76,906.74c21.06,23.32,50.24,37.78,82.51,37.78,45.59,0,85.05-28.83,104.1-70.8-12.66,1.47-24.67,4.22-36.68,7C291.61,889.36,243.73,899.09,192.76,906.74Z"/><path class="cls-13" d="M360.09,729.42a20.69,20.69,0,0,1-4.16,2.79c-7.73,3.3-15.45,5.5-22.07,8.8-49.67,30.8-94.92,58.3-145.69,84.69-9.37,5-17.33,12.86-26.33,19.23a131.49,131.49,0,0,0,30.92,61.81c51-7.65,98.85-17.38,149.93-26,12-2.76,24-5.51,36.68-7a137.46,137.46,0,0,0,12.17-56.94C391.54,783,379.59,752.26,360.09,729.42Z"/><ellipse class="cls-17" cx="252.6" cy="811.95" rx="40.49" ry="44.48"/><ellipse class="cls-38" cx="252.6" cy="811.95" rx="35.05" ry="38.51"/><ellipse class="cls-1" cx="247.35" cy="813.25" rx="30.52" ry="33.52"/><ellipse class="cls-18" cx="259.15" cy="804.77" rx="9.86" ry="13.92" transform="translate(-283.97 156.83) rotate(-22.12)"/><ellipse class="cls-17" cx="289.78" cy="647.06" rx="16.4" ry="18.02"/><ellipse class="cls-1" cx="287.65" cy="647.58" rx="12.36" ry="13.58"/><path class="cls-18" d="M296.14,642.66c1.17,2.89.45,5.89-1.59,6.72s-4.66-.86-5.82-3.75-.45-5.89,1.6-6.71S295,639.77,296.14,642.66Z"/><ellipse class="cls-17" cx="387.01" cy="683.78" rx="16.4" ry="18.02"/><ellipse class="cls-1" cx="384.88" cy="684.31" rx="12.36" ry="13.58"/><path class="cls-18" d="M393.37,679.39c1.17,2.88.45,5.89-1.59,6.71s-4.66-.85-5.82-3.74-.45-5.89,1.59-6.72S392.21,676.5,393.37,679.39Z"/><ellipse class="cls-17" cx="180.49" cy="691.78" rx="12.58" ry="14.56"/><ellipse class="cls-1" cx="178.86" cy="692.2" rx="9.48" ry="10.97"/><path class="cls-18" d="M185.38,688.23c.89,2.33.34,4.76-1.23,5.42s-3.57-.69-4.46-3-.35-4.76,1.22-5.43S184.48,685.89,185.38,688.23Z"/><ellipse class="cls-17" cx="127.28" cy="792.71" rx="12.58" ry="14.56"/><ellipse class="cls-1" cx="125.64" cy="793.14" rx="9.48" ry="10.97"/><path class="cls-18" d="M132.16,789.16c.89,2.33.34,4.76-1.23,5.43s-3.57-.69-4.46-3-.35-4.76,1.22-5.42S131.26,786.83,132.16,789.16Z"/><ellipse class="cls-17" cx="156.63" cy="908.71" rx="12.58" ry="14.56"/><ellipse class="cls-1" cx="155" cy="909.13" rx="9.48" ry="10.97"/><path class="cls-18" d="M161.51,905.15c.9,2.34.35,4.77-1.22,5.43s-3.57-.69-4.47-3-.34-4.76,1.23-5.43S160.62,902.82,161.51,905.15Z"/><ellipse class="cls-17" cx="267.53" cy="986.08" rx="14.75" ry="17.06"/><ellipse class="cls-1" cx="265.62" cy="986.58" rx="11.12" ry="12.86"/><path class="cls-18" d="M273.26,981.92c1.05,2.73.4,5.58-1.44,6.36s-4.19-.81-5.23-3.55-.41-5.58,1.43-6.36S272.21,979.18,273.26,981.92Z"/><ellipse class="cls-17" cx="426.32" cy="904.37" rx="14.75" ry="17.06"/><ellipse class="cls-1" cx="424.4" cy="904.88" rx="11.12" ry="12.86"/><path class="cls-18" d="M432,900.21c1,2.74.4,5.58-1.44,6.36s-4.18-.81-5.23-3.54-.41-5.59,1.44-6.36S431,897.48,432,900.21Z"/><ellipse class="cls-17" cx="439.63" cy="772.3" rx="16.18" ry="17.06"/><ellipse class="cls-1" cx="437.53" cy="772.8" rx="12.2" ry="12.86"/><path class="cls-18" d="M445.91,768.14c1.15,2.73.45,5.58-1.57,6.36s-4.6-.81-5.75-3.54-.44-5.59,1.58-6.37S444.76,765.4,445.91,768.14Z"/></g></g></g></svg>